<svg width="870" height="820" viewBox="0 0 870 820" fill="none" xmlns="http://www.w3.org/2000/svg">
<mask id="path-1-outside-1_2073_1008" maskUnits="userSpaceOnUse" x="545.084" y="205.379" width="325" height="333" fill="black">
<rect fill="white" x="545.084" y="205.379" width="325" height="333"/>
<path d="M807.008 215.379C836.344 215.379 855.79 253.636 855.79 276.039C855.79 279.225 855.396 281.918 854.637 284.195H855.065C855.066 284.197 860.102 356.929 859.998 403.78C859.9 448.245 857.756 499.273 846.817 511.101C841.5 516.85 832.917 518.458 825.5 518.594V519.516C825.5 519.516 760.016 526.2 717.768 527.214C654.141 528.74 555.094 519.517 555.084 519.516V462.705C579.746 456.692 592.37 457.685 614.012 462.705C614.017 462.702 658.049 439.308 691.015 434.83C725.398 430.16 770.933 442.92 799.213 452.689C798.968 450.647 798.748 448.648 798.562 446.709C793.814 397.113 804.291 325.065 808.99 296.513C808.335 296.511 807.674 296.507 807.008 296.507C777.672 296.507 743.772 278.718 743.771 256.315C743.771 233.913 777.671 215.379 807.008 215.379Z"/>
</mask>
<path d="M807.008 215.379C836.344 215.379 855.79 253.636 855.79 276.039C855.79 279.225 855.396 281.918 854.637 284.195H855.065C855.066 284.197 860.102 356.929 859.998 403.78C859.9 448.245 857.756 499.273 846.817 511.101C841.5 516.85 832.917 518.458 825.5 518.594V519.516C825.5 519.516 760.016 526.2 717.768 527.214C654.141 528.74 555.094 519.517 555.084 519.516V462.705C579.746 456.692 592.37 457.685 614.012 462.705C614.017 462.702 658.049 439.308 691.015 434.83C725.398 430.16 770.933 442.92 799.213 452.689C798.968 450.647 798.748 448.648 798.562 446.709C793.814 397.113 804.291 325.065 808.99 296.513C808.335 296.511 807.674 296.507 807.008 296.507C777.672 296.507 743.772 278.718 743.771 256.315C743.771 233.913 777.671 215.379 807.008 215.379Z" fill="#FFC786"/>
<path d="M807.008 215.379V205.379H807.008L807.008 215.379ZM855.79 276.039L865.79 276.039V276.039H855.79ZM854.637 284.195L845.15 281.033L840.762 294.195H854.637V284.195ZM855.065 284.195L865.042 283.505L864.397 274.195H855.065V284.195ZM859.998 403.78L869.998 403.802L859.998 403.78ZM846.817 511.101L854.159 517.891L854.159 517.89L846.817 511.101ZM825.5 518.594L825.318 508.595L815.5 508.775V518.594H825.5ZM825.5 519.516L826.516 529.464L835.5 528.547V519.516H825.5ZM717.768 527.214L718.007 537.211L717.768 527.214ZM555.084 519.516H545.084V528.628L554.157 529.473L555.084 519.516ZM555.084 462.705L552.715 452.99L545.084 454.85V462.705H555.084ZM614.012 462.705L611.752 472.446L615.398 473.292L618.704 471.536L614.012 462.705ZM691.015 434.83L689.669 424.921H689.669L691.015 434.83ZM799.213 452.689L795.948 462.141L811.045 467.357L809.142 451.498L799.213 452.689ZM798.562 446.709L788.608 447.662V447.662L798.562 446.709ZM808.99 296.513L818.857 298.137L820.766 286.543L809.016 286.513L808.99 296.513ZM807.008 296.507L807.008 306.507H807.008V296.507ZM743.771 256.315H733.771V256.316L743.771 256.315ZM807.008 215.379V225.379C817.015 225.379 826.56 231.955 834.168 242.986C841.748 253.975 845.79 267.196 845.79 276.039H855.79H865.79C865.79 262.479 860.109 245.37 850.632 231.63C841.183 217.931 826.337 205.379 807.008 205.379V215.379ZM855.79 276.039L845.79 276.039C845.79 278.425 845.492 280.007 845.15 281.033L854.637 284.195L864.123 287.358C865.3 283.829 865.79 280.025 865.79 276.039L855.79 276.039ZM854.637 284.195V294.195H855.065V284.195V274.195H854.637V284.195ZM855.065 284.195L845.089 284.886C845.087 284.856 846.342 302.976 847.584 326.937C848.828 350.943 850.049 380.615 849.998 403.758L859.998 403.78L869.998 403.802C870.051 380.094 868.805 349.975 867.557 325.902C866.307 301.783 865.044 283.537 865.042 283.505L855.065 284.195ZM859.998 403.78L849.998 403.758C849.949 425.908 849.388 449.403 847.519 468.716C846.583 478.39 845.343 486.74 843.762 493.227C842.069 500.175 840.346 503.37 839.476 504.311L846.817 511.101L854.159 517.89C858.758 512.918 861.405 505.299 863.193 497.963C865.094 490.166 866.447 480.762 867.426 470.643C869.388 450.369 869.949 426.117 869.998 403.802L859.998 403.78ZM846.817 511.101L839.476 504.311C837.061 506.922 832.099 508.472 825.318 508.595L825.5 518.594L825.682 528.592C833.736 528.445 845.939 526.778 854.159 517.891L846.817 511.101ZM825.5 518.594H815.5V519.516H825.5H835.5V518.594H825.5ZM825.5 519.516C824.484 509.567 824.484 509.567 824.484 509.567C824.484 509.567 824.483 509.567 824.482 509.568C824.481 509.568 824.478 509.568 824.474 509.568C824.467 509.569 824.456 509.57 824.441 509.572C824.41 509.575 824.364 509.58 824.303 509.586C824.181 509.598 823.997 509.617 823.755 509.641C823.271 509.69 822.552 509.761 821.622 509.853C819.761 510.037 817.052 510.3 813.667 510.62C806.897 511.26 797.43 512.124 786.649 513.019C765.034 514.814 738.344 516.717 717.528 517.217L717.768 527.214L718.007 537.211C739.44 536.697 766.615 534.751 788.304 532.95C799.176 532.048 808.721 531.177 815.549 530.532C818.963 530.209 821.7 529.943 823.585 529.757C824.528 529.664 825.258 529.591 825.754 529.541C826.001 529.516 826.191 529.497 826.318 529.484C826.382 529.477 826.431 529.473 826.464 529.469C826.48 529.467 826.493 529.466 826.502 529.465C826.506 529.465 826.509 529.465 826.512 529.464C826.513 529.464 826.514 529.464 826.514 529.464C826.515 529.464 826.516 529.464 825.5 519.516ZM717.768 527.214L717.528 517.217C686.179 517.969 645.876 516.07 613.215 513.958C580.627 511.851 555.965 509.554 556.011 509.559L555.084 519.516L554.157 529.473C554.213 529.478 579.079 531.793 611.924 533.917C644.695 536.035 685.73 537.985 718.007 537.211L717.768 527.214ZM555.084 519.516H565.084V462.705H555.084H545.084V519.516H555.084ZM555.084 462.705L557.453 472.42C569.27 469.539 577.708 468.458 585.542 468.566C593.418 468.676 601.167 469.991 611.752 472.446L614.012 462.705L616.272 452.964C605.215 450.399 595.831 448.707 585.819 448.568C575.764 448.429 565.56 449.858 552.715 452.99L555.084 462.705ZM614.012 462.705L618.704 471.536C618.566 471.609 629.293 465.906 644.054 459.654C658.997 453.324 677.244 446.792 692.361 444.739L691.015 434.83L689.669 424.921C671.819 427.345 651.568 434.75 636.253 441.238C620.755 447.802 609.464 453.798 609.32 453.874L614.012 462.705ZM691.015 434.83L692.361 444.739C707.967 442.619 726.7 444.418 745.449 448.152C764.074 451.862 782.066 457.346 795.948 462.141L799.213 452.689L802.478 443.238C788.08 438.264 769.165 432.483 749.356 428.537C729.672 424.617 708.446 422.371 689.669 424.921L691.015 434.83ZM799.213 452.689L809.142 451.498C808.904 449.519 808.694 447.6 808.517 445.756L798.562 446.709L788.608 447.662C788.803 449.695 789.031 451.775 789.284 453.881L799.213 452.689ZM798.562 446.709L808.517 445.756C803.91 397.636 814.138 326.816 818.857 298.137L808.99 296.513L799.123 294.889C794.445 323.314 783.718 396.59 788.608 447.662L798.562 446.709ZM808.99 296.513L809.016 286.513C808.418 286.511 807.683 286.507 807.008 286.507V296.507V306.507C807.664 306.507 808.251 306.511 808.965 306.513L808.99 296.513ZM807.008 296.507L807.008 286.507C794.151 286.507 780.112 282.551 769.514 276.225C758.49 269.645 753.772 262.234 753.771 256.315L743.771 256.315L733.771 256.316C733.772 272.8 746.004 285.484 759.263 293.399C772.949 301.568 790.528 306.507 807.008 306.507L807.008 296.507ZM743.771 256.315H753.771C753.771 250.333 758.568 242.735 769.61 235.975C780.225 229.476 794.234 225.379 807.008 225.379L807.008 215.379L807.008 205.379C790.445 205.379 772.836 210.549 759.167 218.918C745.925 227.025 733.771 239.895 733.771 256.315H743.771Z" fill="white" mask="url(#path-1-outside-1_2073_1008)"/>
<mask id="path-3-outside-2_2073_1008" maskUnits="userSpaceOnUse" x="-0.0522461" y="205.379" width="325" height="333" fill="black">
<rect fill="white" x="-0.0522461" y="205.379" width="325" height="333"/>
<path d="M63.0239 215.379C33.6876 215.379 14.2417 253.636 14.2417 276.039C14.2417 279.225 14.636 281.918 15.395 284.195H14.9341C14.9341 284.195 9.89774 356.928 10.0015 403.78C10.0999 448.245 12.2434 499.273 23.1821 511.101C28.5073 516.858 37.1078 518.463 44.5327 518.594V519.516C44.629 519.525 110.048 526.201 152.265 527.214C215.811 528.738 314.688 519.54 314.948 519.516V462.705C290.286 456.692 277.663 457.685 256.021 462.705C256.021 462.705 211.985 439.308 179.017 434.83C144.62 430.158 99.0614 442.93 70.7847 452.701C71.0303 450.654 71.251 448.652 71.437 446.709C76.1858 397.113 65.7084 325.065 61.0093 296.513C61.6755 296.511 62.3471 296.507 63.0239 296.507C92.3603 296.507 126.26 278.718 126.26 256.315C126.26 233.913 92.3605 215.379 63.0239 215.379Z"/>
</mask>
<path d="M63.0239 215.379C33.6876 215.379 14.2417 253.636 14.2417 276.039C14.2417 279.225 14.636 281.918 15.395 284.195H14.9341C14.9341 284.195 9.89774 356.928 10.0015 403.78C10.0999 448.245 12.2434 499.273 23.1821 511.101C28.5073 516.858 37.1078 518.463 44.5327 518.594V519.516C44.629 519.525 110.048 526.201 152.265 527.214C215.811 528.738 314.688 519.54 314.948 519.516V462.705C290.286 456.692 277.663 457.685 256.021 462.705C256.021 462.705 211.985 439.308 179.017 434.83C144.62 430.158 99.0614 442.93 70.7847 452.701C71.0303 450.654 71.251 448.652 71.437 446.709C76.1858 397.113 65.7084 325.065 61.0093 296.513C61.6755 296.511 62.3471 296.507 63.0239 296.507C92.3603 296.507 126.26 278.718 126.26 256.315C126.26 233.913 92.3605 215.379 63.0239 215.379Z" fill="#FFC786"/>
<path d="M63.0239 215.379L63.0238 205.379H63.0239V215.379ZM14.2417 276.039L4.2417 276.039V276.039H14.2417ZM15.395 284.195L24.8818 281.033L29.2694 294.195H15.395V284.195ZM14.9341 284.195L4.95798 283.505L5.60257 274.195H14.9341V284.195ZM10.0015 403.78L0.00149536 403.802L10.0015 403.78ZM23.1821 511.101L15.8408 517.891L15.8406 517.89L23.1821 511.101ZM44.5327 518.594L44.7094 508.595L54.5327 508.769V518.594H44.5327ZM44.5327 519.516L43.5173 529.464L34.5327 528.547V519.516H44.5327ZM152.265 527.214L152.025 537.211L152.265 527.214ZM314.948 519.516H324.948V528.628L315.875 529.473L314.948 519.516ZM314.948 462.705L317.317 452.99L324.948 454.85V462.705H314.948ZM256.021 462.705L258.281 472.446L254.634 473.292L251.329 471.536L256.021 462.705ZM179.017 434.83L180.363 424.921L180.363 424.921L179.017 434.83ZM70.7847 452.701L74.0508 462.153L58.9521 467.37L60.8559 451.509L70.7847 452.701ZM71.437 446.709L81.3915 447.662V447.662L71.437 446.709ZM61.0093 296.513L51.142 298.137L49.234 286.543L60.9832 286.513L61.0093 296.513ZM63.0239 296.507V286.507V296.507ZM126.26 256.315H136.26V256.316L126.26 256.315ZM63.0239 215.379L63.024 225.379C53.0172 225.379 43.4718 231.955 35.8634 242.986C28.2836 253.975 24.2417 267.196 24.2417 276.039H14.2417H4.2417C4.2417 262.479 9.9227 245.37 19.3999 231.63C28.8486 217.931 43.6943 205.379 63.0238 205.379L63.0239 215.379ZM14.2417 276.039L24.2417 276.039C24.2417 278.425 24.5399 280.007 24.8818 281.033L15.395 284.195L5.90823 287.358C4.73212 283.83 4.24173 280.025 4.2417 276.039L14.2417 276.039ZM15.395 284.195V294.195H14.9341V284.195V274.195H15.395V284.195ZM14.9341 284.195C24.9102 284.886 24.9102 284.886 24.9102 284.886C24.9101 284.887 24.9101 284.888 24.91 284.889C24.9099 284.89 24.9097 284.893 24.9094 284.898C24.9088 284.906 24.908 284.918 24.9068 284.935C24.9044 284.969 24.9009 285.021 24.8962 285.089C24.8869 285.225 24.8729 285.43 24.8547 285.699C24.8182 286.238 24.7645 287.037 24.6961 288.072C24.5593 290.141 24.3638 293.152 24.1294 296.914C23.6605 304.438 23.0363 314.958 22.4155 326.936C21.1711 350.942 19.9502 380.615 20.0014 403.758L10.0015 403.78L0.00149536 403.802C-0.0509949 380.093 1.1944 349.974 2.44229 325.901C3.06754 313.839 3.69595 303.247 4.16812 295.67C4.40427 291.881 4.60141 288.844 4.73965 286.752C4.80878 285.707 4.86319 284.897 4.90042 284.348C4.91901 284.073 4.93332 283.863 4.94302 283.722C4.94788 283.651 4.95157 283.597 4.95407 283.561C4.95532 283.543 4.95627 283.529 4.95694 283.52C4.95724 283.515 4.95752 283.511 4.95767 283.509C4.95776 283.507 4.95782 283.506 4.95789 283.506C4.95795 283.505 4.95798 283.505 14.9341 284.195ZM10.0015 403.78L20.0014 403.758C20.0505 425.908 20.6112 449.403 22.4802 468.716C23.4164 478.39 24.6562 486.74 26.2373 493.227C27.9309 500.175 29.6534 503.37 30.5236 504.311L23.1821 511.101L15.8406 517.89C11.2415 512.918 8.59409 505.298 6.80615 497.963C4.90579 490.166 3.55252 480.762 2.57321 470.643C0.611206 450.369 0.0509033 426.117 0.00149536 403.802L10.0015 403.78ZM23.1821 511.101L30.5235 504.311C32.9425 506.926 37.9169 508.475 44.7094 508.595L44.5327 518.594L44.356 528.592C36.2987 528.45 24.0721 526.79 15.8408 517.891L23.1821 511.101ZM44.5327 518.594H54.5327V519.516H44.5327H34.5327V518.594H44.5327ZM44.5327 519.516L45.5481 509.567C45.7198 509.585 110.745 516.215 152.505 517.217L152.265 527.214L152.025 537.211C109.351 536.187 43.5381 529.466 43.5173 529.464L44.5327 519.516ZM152.265 527.214L152.505 517.217C215.363 518.725 313.646 509.594 314.021 509.559L314.948 519.516L315.875 529.473C315.73 529.486 216.259 538.752 152.025 537.211L152.265 527.214ZM314.948 519.516H304.948V462.705H314.948H324.948V519.516H314.948ZM314.948 462.705L312.579 472.42C300.762 469.539 292.324 468.458 284.491 468.566C276.615 468.676 268.866 469.991 258.281 472.446L256.021 462.705L253.761 452.964C264.818 450.399 274.202 448.707 284.213 448.568C294.268 448.429 304.472 449.858 317.317 452.99L314.948 462.705ZM256.021 462.705C251.329 471.536 251.33 471.536 251.33 471.537C251.33 471.537 251.331 471.537 251.331 471.537C251.331 471.537 251.33 471.537 251.329 471.536C251.326 471.535 251.321 471.532 251.313 471.528C251.297 471.519 251.271 471.505 251.234 471.486C251.161 471.447 251.047 471.387 250.893 471.307C250.586 471.147 250.121 470.906 249.512 470.595C248.295 469.972 246.503 469.07 244.244 467.968C239.72 465.763 233.349 462.776 225.981 459.655C211.037 453.324 192.788 446.792 177.671 444.739L179.017 434.83L180.363 424.921C198.214 427.346 218.467 434.751 233.782 441.239C241.545 444.527 248.243 447.668 253.007 449.99C255.391 451.153 257.297 452.113 258.616 452.787C259.276 453.124 259.79 453.391 260.144 453.575C260.321 453.667 260.458 453.739 260.553 453.79C260.601 453.815 260.638 453.835 260.665 453.849C260.678 453.856 260.689 453.861 260.697 453.866C260.701 453.868 260.704 453.87 260.707 453.871C260.708 453.872 260.71 453.872 260.711 453.873C260.712 453.874 260.713 453.874 256.021 462.705ZM179.017 434.83L177.671 444.739C162.058 442.619 143.317 444.419 124.56 448.157C105.928 451.869 87.9311 457.356 74.0508 462.153L70.7847 452.701L67.5186 443.25C81.915 438.275 100.835 432.491 120.651 428.542C140.342 424.619 161.578 422.37 180.363 424.921L179.017 434.83ZM70.7847 452.701L60.8559 451.509C61.0943 449.524 61.3057 447.602 61.4825 445.756L71.437 446.709L81.3915 447.662C81.1963 449.701 80.9664 451.785 80.7134 453.893L70.7847 452.701ZM71.437 446.709L61.4825 445.756C66.09 397.636 55.862 326.816 51.142 298.137L61.0093 296.513L70.8765 294.889C75.5548 323.314 86.2816 396.59 81.3915 447.662L71.437 446.709ZM61.0093 296.513L60.9832 286.513C61.5962 286.511 62.336 286.507 63.0239 286.507V296.507V306.507C62.3582 306.507 61.7548 306.511 61.0354 306.513L61.0093 296.513ZM63.0239 296.507V286.507C75.8808 286.507 89.9197 282.551 100.518 276.225C111.542 269.645 116.26 262.234 116.26 256.315L126.26 256.315L136.26 256.316C136.26 272.8 124.028 285.484 110.768 293.399C97.0825 301.568 79.5034 306.507 63.0239 306.507V296.507ZM126.26 256.315H116.26C116.26 250.333 111.464 242.735 100.422 235.975C89.8072 229.476 75.7981 225.379 63.0239 225.379V215.379V205.379C79.5863 205.379 97.1954 210.549 110.865 218.918C124.107 227.025 136.26 239.895 136.26 256.315H126.26Z" fill="white" mask="url(#path-3-outside-2_2073_1008)"/>
<mask id="path-5-outside-3_2073_1008" maskUnits="userSpaceOnUse" x="263.417" y="0" width="344" height="820" fill="black">
<rect fill="white" x="263.417" width="344" height="820"/>
<path d="M553.636 383.118C575.728 383.118 593.71 401.036 592.943 423.114C589.52 521.656 573.524 614.396 547.459 684.97C517.893 765.025 477.794 810 435.981 810C394.168 810 354.068 765.025 324.501 684.969C298.437 614.395 282.442 521.656 279.019 423.114C278.252 401.036 296.234 383.118 318.326 383.118H553.636ZM434.927 10C524.126 10.0001 596.437 84.4707 596.437 176.335C596.437 268.199 524.127 342.671 434.927 342.671C345.728 342.671 273.417 268.199 273.417 176.335C273.418 84.4707 345.728 10 434.927 10Z"/>
</mask>
<path d="M553.636 383.118C575.728 383.118 593.71 401.036 592.943 423.114C589.52 521.656 573.524 614.396 547.459 684.97C517.893 765.025 477.794 810 435.981 810C394.168 810 354.068 765.025 324.501 684.969C298.437 614.395 282.442 521.656 279.019 423.114C278.252 401.036 296.234 383.118 318.326 383.118H553.636ZM434.927 10C524.126 10.0001 596.437 84.4707 596.437 176.335C596.437 268.199 524.127 342.671 434.927 342.671C345.728 342.671 273.417 268.199 273.417 176.335C273.418 84.4707 345.728 10 434.927 10Z" fill="#FFC786"/>
<path d="M547.459 684.97L556.84 688.434L547.459 684.97ZM435.981 810V820H435.981L435.981 810ZM324.501 684.969L315.121 688.433L324.501 684.969ZM434.927 10L434.927 0H434.927V10ZM596.437 176.335H606.437V176.335L596.437 176.335ZM434.927 342.671V352.671H434.927L434.927 342.671ZM273.417 176.335L263.417 176.335V176.335H273.417ZM592.943 423.114L582.949 422.766C579.551 520.57 563.675 612.198 538.079 681.505L547.459 684.97L556.84 688.434C583.372 616.595 599.488 522.742 602.937 423.461L592.943 423.114ZM547.459 684.97L538.079 681.505C523.549 720.848 506.675 750.857 488.849 770.851C471.012 790.856 453.036 800 435.981 800L435.981 810L435.981 820C460.739 820 483.719 806.656 503.777 784.161C523.845 761.653 541.804 729.147 556.84 688.434L547.459 684.97ZM435.981 810V800C418.926 800 400.95 790.856 383.113 770.85C365.286 750.857 348.412 720.847 333.882 681.504L324.501 684.969L315.121 688.433C330.157 729.146 348.116 761.652 368.185 784.16C388.243 806.656 411.223 820 435.981 820V810ZM324.501 684.969L333.882 681.504C308.286 612.197 292.411 520.569 289.013 422.766L279.019 423.114L269.025 423.461C272.474 522.742 288.589 616.594 315.121 688.433L324.501 684.969ZM318.326 383.118V393.118H553.636V383.118V373.118H318.326V383.118ZM434.927 10L434.927 20C518.328 20.0001 586.437 89.714 586.437 176.335L596.437 176.335L606.437 176.335C606.437 79.2274 529.925 0.000114441 434.927 0L434.927 10ZM596.437 176.335H586.437C586.437 262.956 518.328 332.671 434.927 332.671L434.927 342.671L434.927 352.671C529.925 352.671 606.437 273.443 606.437 176.335H596.437ZM434.927 342.671V332.671C351.526 332.671 283.417 262.956 283.417 176.335H273.417H263.417C263.417 273.443 339.929 352.671 434.927 352.671V342.671ZM273.417 176.335L283.417 176.335C283.418 89.714 351.526 20 434.927 20V10V0C339.93 0 263.418 79.2274 263.417 176.335L273.417 176.335ZM279.019 423.114L289.013 422.766C288.45 406.572 301.663 393.118 318.326 393.118V383.118V373.118C290.806 373.118 268.053 395.499 269.025 423.461L279.019 423.114ZM592.943 423.114L602.937 423.461C603.909 395.499 581.156 373.118 553.636 373.118V383.118V393.118C570.299 393.118 583.512 406.572 582.949 422.766L592.943 423.114Z" fill="white" mask="url(#path-5-outside-3_2073_1008)"/>
</svg>
