<svg width="624" height="810" viewBox="0 0 624 810" fill="none" xmlns="http://www.w3.org/2000/svg">
<path d="M312.968 355.197C377.184 355.197 438.77 398.023 484.177 474.251C523.937 540.998 548.44 628.568 553.921 721.692C555.219 743.745 537.186 761.67 515.094 761.67H110.841C88.7499 761.67 70.7165 743.745 72.0144 721.692C77.495 628.568 101.999 540.998 141.758 474.251C187.166 398.023 248.752 355.197 312.968 355.197ZM312.968 0C398.402 0 467.661 70.9427 467.661 158.455C467.661 245.967 398.402 316.91 312.968 316.91C227.534 316.91 158.277 245.967 158.277 158.455C158.277 70.9428 227.534 2.80547e-05 312.968 0Z" fill="#FFC786"/>
<path d="M573.197 503.07C601.739 503.07 623.009 529.275 617.278 557.12L617.138 557.778L570.313 769.712C565.759 790.327 547.485 805.004 526.373 805.004H106.022C85.8032 805.004 68.1095 791.526 62.6865 772.129L62.4375 771.201L7.99023 559.268C0.675725 530.796 22.1789 503.07 51.5752 503.07H573.197Z" fill="#CCCCCC" stroke="white" stroke-width="10"/>
<ellipse cx="312" cy="654.036" rx="65" ry="36.3636" fill="white"/>
</svg>
