<svg width="380" height="976" viewBox="0 0 380 976" fill="none" xmlns="http://www.w3.org/2000/svg">
<ellipse cx="222.737" cy="159.173" rx="157.264" ry="159.173" fill="#FFC786"/>
<path d="M143.472 647.496C158.022 651.568 167.617 665.514 166.229 680.575L153.991 813.371L153.918 814.077C153.543 817.364 152.673 820.572 151.337 823.592L151.043 824.236L93.2571 947.506C86.8303 961.215 71.4774 968.244 56.881 964.16C38.2602 958.95 28.7267 938.186 36.9253 920.696L90.5968 806.201L90.8339 805.682C91.9115 803.247 92.6133 800.659 92.9155 798.009L92.9746 797.44L104.303 674.505C106.083 655.197 124.82 642.277 143.472 647.496Z" fill="#FFC786" stroke="white" stroke-width="6.31983"/>
<path d="M195.432 649.96C210.159 643.209 227.505 648.786 235.521 662.848L303.985 782.964L304.373 783.666C305.133 785.078 305.788 786.545 306.332 788.056L306.596 788.815L349.296 916.994C354.412 932.352 347.111 949.184 332.409 955.924C315.487 963.681 295.699 955.076 289.811 937.399L248.895 814.577L248.683 813.964C248.244 812.746 247.716 811.563 247.103 810.424L246.79 809.858L181.058 694.536C171.859 678.398 178.531 657.707 195.432 649.96Z" fill="#FFC786" stroke="white" stroke-width="6.31983"/>
<path d="M215.047 455.778C210.344 443.125 215.252 428.839 226.727 421.779C241.659 412.593 261.118 419.322 267.237 435.786L294 507.794C295.307 511.311 297.267 514.541 299.774 517.311L347.378 569.91C359.166 582.935 356.183 603.645 341.189 612.869C329.815 619.867 315.165 617.788 306.222 607.906L251.249 547.165C248.741 544.394 246.782 541.164 245.475 537.648L215.047 455.778Z" fill="#FFC786"/>
<rect x="-4.672" y="-5.81282" width="113.25" height="332.731" rx="34.7591" transform="matrix(0.993991 0.109458 -0.106879 0.994272 145.476 338.314)" fill="#FFC786" stroke="white" stroke-width="10.533"/>
<path d="M130.792 380.555C150.842 386.099 160.858 408.564 151.791 427.08L151.344 427.959L95.8821 533.346C94.0242 536.876 93.0677 540.817 93.098 544.818L93.7665 632.981L93.7675 633.487C93.612 654.855 73.3235 670.282 52.6709 664.571C38.7676 660.726 29.0082 648.209 28.6004 633.82L28.5874 633.133L27.8026 529.696C27.7591 523.955 29.1318 518.3 31.7976 513.235L93.0412 396.862L93.3844 396.227C100.714 383.005 116.14 376.504 130.792 380.555Z" fill="#FFC786" stroke="white" stroke-width="10.533"/>
</svg>
