<svg width="1259" height="764" viewBox="0 0 1259 764" fill="none" xmlns="http://www.w3.org/2000/svg">
<mask id="path-1-outside-1_2073_967" maskUnits="userSpaceOnUse" x="-11.3335" y="97.7954" width="524.298" height="283.553" fill="black">
<rect fill="white" x="-11.3335" y="97.7954" width="524.298" height="283.553"/>
<path d="M185.417 129.735C190.346 130.375 193.823 134.89 193.183 139.819L183.395 215.186L322.229 233.216L332.017 157.85C332.657 152.921 337.172 149.444 342.101 150.084L373.834 154.205C378.763 154.845 382.24 159.36 381.6 164.289L358.161 344.774C357.521 349.703 353.006 353.18 348.077 352.54L316.343 348.419C311.414 347.778 307.937 343.263 308.577 338.334L318.365 262.966L179.531 244.936L169.743 320.303C169.103 325.232 164.588 328.709 159.659 328.069L127.926 323.948C122.997 323.308 119.52 318.793 120.16 313.864L122.864 293.04C122.224 297.969 117.709 301.446 112.78 300.806L90.9631 297.972C86.0342 297.332 82.5572 292.817 83.1972 287.888L87.5763 254.168C86.9361 259.097 82.4212 262.574 77.4922 261.934L65.5921 260.389C60.663 259.749 57.1861 255.234 57.8261 250.305L60.5307 229.48L25.8221 224.972C17.6069 223.905 11.812 216.381 12.8789 208.165C13.9458 199.95 21.4705 194.155 29.6858 195.222L64.3943 199.73L67.0988 178.904C67.739 173.975 72.2538 170.498 77.183 171.138L89.083 172.684C94.0121 173.324 97.4891 177.839 96.849 182.768L101.227 149.054C101.868 144.125 106.382 140.648 111.312 141.288L133.128 144.121C138.057 144.762 141.534 149.276 140.894 154.206L143.599 133.38C144.239 128.45 148.754 124.973 153.683 125.614L185.417 129.735ZM410.796 180.183C415.726 180.823 419.203 185.338 418.563 190.267L414.19 223.944C414.848 219.036 419.352 215.579 424.268 216.217L436.168 217.762C441.097 218.402 444.574 222.917 443.934 227.846L441.23 248.671L475.938 253.178C484.153 254.245 489.948 261.77 488.881 269.985C487.814 278.2 480.29 283.995 472.074 282.928L437.366 278.421L434.661 299.247C434.021 304.176 429.506 307.653 424.577 307.013L412.677 305.467C407.761 304.829 404.29 300.335 404.907 295.421L400.533 329.101C399.893 334.03 395.378 337.507 390.449 336.867L368.632 334.034C363.703 333.394 360.226 328.879 360.866 323.95L378.896 185.116C379.537 180.187 384.051 176.71 388.98 177.349L410.796 180.183Z"/>
</mask>
<path d="M185.417 129.735C190.346 130.375 193.823 134.89 193.183 139.819L183.395 215.186L322.229 233.216L332.017 157.85C332.657 152.921 337.172 149.444 342.101 150.084L373.834 154.205C378.763 154.845 382.24 159.36 381.6 164.289L358.161 344.774C357.521 349.703 353.006 353.18 348.077 352.54L316.343 348.419C311.414 347.778 307.937 343.263 308.577 338.334L318.365 262.966L179.531 244.936L169.743 320.303C169.103 325.232 164.588 328.709 159.659 328.069L127.926 323.948C122.997 323.308 119.52 318.793 120.16 313.864L122.864 293.04C122.224 297.969 117.709 301.446 112.78 300.806L90.9631 297.972C86.0342 297.332 82.5572 292.817 83.1972 287.888L87.5763 254.168C86.9361 259.097 82.4212 262.574 77.4922 261.934L65.5921 260.389C60.663 259.749 57.1861 255.234 57.8261 250.305L60.5307 229.48L25.8221 224.972C17.6069 223.905 11.812 216.381 12.8789 208.165C13.9458 199.95 21.4705 194.155 29.6858 195.222L64.3943 199.73L67.0988 178.904C67.739 173.975 72.2538 170.498 77.183 171.138L89.083 172.684C94.0121 173.324 97.4891 177.839 96.849 182.768L101.227 149.054C101.868 144.125 106.382 140.648 111.312 141.288L133.128 144.121C138.057 144.762 141.534 149.276 140.894 154.206L143.599 133.38C144.239 128.45 148.754 124.973 153.683 125.614L185.417 129.735ZM410.796 180.183C415.726 180.823 419.203 185.338 418.563 190.267L414.19 223.944C414.848 219.036 419.352 215.579 424.268 216.217L436.168 217.762C441.097 218.402 444.574 222.917 443.934 227.846L441.23 248.671L475.938 253.178C484.153 254.245 489.948 261.77 488.881 269.985C487.814 278.2 480.29 283.995 472.074 282.928L437.366 278.421L434.661 299.247C434.021 304.176 429.506 307.653 424.577 307.013L412.677 305.467C407.761 304.829 404.29 300.335 404.907 295.421L400.533 329.101C399.893 334.03 395.378 337.507 390.449 336.867L368.632 334.034C363.703 333.394 360.226 328.879 360.866 323.95L378.896 185.116C379.537 180.187 384.051 176.71 388.98 177.349L410.796 180.183Z" fill="#CCCCCC"/>
<path d="M185.417 129.735L184.129 139.651L185.417 129.735ZM183.395 215.186L173.478 213.898L172.19 223.815L182.107 225.103L183.395 215.186ZM322.229 233.216L320.941 243.133L330.858 244.421L332.146 234.504L322.229 233.216ZM332.017 157.85L322.1 156.562L332.017 157.85ZM342.101 150.084L343.389 140.167L343.388 140.167L342.101 150.084ZM358.161 344.774L368.078 346.062L368.078 346.062L358.161 344.774ZM348.077 352.54L349.365 342.623L348.077 352.54ZM316.343 348.419L315.055 358.335L315.055 358.335L316.343 348.419ZM308.577 338.334L298.661 337.046L298.661 337.047L308.577 338.334ZM318.365 262.966L328.282 264.254L329.57 254.337L319.653 253.05L318.365 262.966ZM179.531 244.936L180.819 235.019L170.902 233.732L169.614 243.648L179.531 244.936ZM169.743 320.303L179.66 321.591L179.66 321.591L169.743 320.303ZM127.926 323.948L126.638 333.865L126.638 333.865L127.926 323.948ZM120.16 313.864L110.243 312.576L110.243 312.576L120.16 313.864ZM122.864 293.04L132.781 294.328L112.947 291.752L122.864 293.04ZM90.9631 297.972L89.675 307.889L89.6753 307.889L90.9631 297.972ZM83.1972 287.888L73.2805 286.6L73.2804 286.601L83.1972 287.888ZM87.5763 254.168L97.493 255.456L77.6596 252.88L87.5763 254.168ZM77.4922 261.934L76.2043 271.851L76.2045 271.851L77.4922 261.934ZM65.5921 260.389L66.88 250.472L65.5921 260.389ZM57.8261 250.305L47.9094 249.017L47.9094 249.017L57.8261 250.305ZM60.5307 229.48L70.4474 230.768L71.7353 220.851L61.8185 219.563L60.5307 229.48ZM12.8789 208.165L2.96214 206.877L2.96214 206.877L12.8789 208.165ZM64.3943 199.73L63.1064 209.646L73.0231 210.934L74.311 201.017L64.3943 199.73ZM77.183 171.138L75.8951 181.055L77.183 171.138ZM89.083 172.684L90.3711 162.767L90.3709 162.767L89.083 172.684ZM111.312 141.288L112.599 131.371L112.599 131.371L111.312 141.288ZM153.683 125.614L154.971 115.697L154.971 115.697L153.683 125.614ZM414.19 223.944L404.273 222.656L424.101 225.274L414.19 223.944ZM424.268 216.217L425.556 206.3L425.555 206.3L424.268 216.217ZM436.168 217.762L437.456 207.846L436.168 217.762ZM443.934 227.846L434.017 226.559L443.934 227.846ZM441.23 248.671L431.313 247.383L430.025 257.299L439.942 258.587L441.23 248.671ZM475.938 253.178L477.226 243.261L475.938 253.178ZM488.881 269.985L498.798 271.273L498.798 271.273L488.881 269.985ZM472.074 282.928L470.787 292.845L472.074 282.928ZM437.366 278.421L438.654 268.504L428.737 267.216L427.449 277.133L437.366 278.421ZM434.661 299.247L444.578 300.535L444.578 300.535L434.661 299.247ZM424.577 307.013L423.289 316.93L424.577 307.013ZM412.677 305.467L411.389 315.384L411.389 315.384L412.677 305.467ZM404.907 295.421L414.829 296.668L394.99 294.133L404.907 295.421ZM400.533 329.101L410.45 330.389L410.45 330.389L400.533 329.101ZM390.449 336.867L389.161 346.784L389.162 346.784L390.449 336.867ZM360.866 323.95L350.95 322.662L350.95 322.662L360.866 323.95ZM388.98 177.349L390.267 167.433L390.267 167.433L388.98 177.349ZM185.417 129.735L184.129 139.651C183.581 139.58 183.195 139.079 183.266 138.531L193.183 139.819L203.099 141.107C204.451 130.701 197.11 121.169 186.704 119.818L185.417 129.735ZM193.183 139.819L183.266 138.531L173.478 213.898L183.395 215.186L193.311 216.474L203.099 141.107L193.183 139.819ZM183.395 215.186L182.107 225.103L320.941 243.133L322.229 233.216L323.517 223.299L184.683 205.269L183.395 215.186ZM322.229 233.216L332.146 234.504L341.933 159.138L332.017 157.85L322.1 156.562L312.312 231.928L322.229 233.216ZM332.017 157.85L341.933 159.138C341.862 159.686 341.36 160.072 340.813 160.001L342.101 150.084L343.388 140.167C332.983 138.816 323.451 146.156 322.1 156.562L332.017 157.85ZM342.101 150.084L340.813 160.001L372.546 164.122L373.834 154.205L375.122 144.289L343.389 140.167L342.101 150.084ZM373.834 154.205L372.546 164.122C371.999 164.051 371.612 163.549 371.683 163.001L381.6 164.289L391.517 165.577C392.868 155.171 385.528 145.64 375.122 144.289L373.834 154.205ZM381.6 164.289L371.683 163.001L348.244 343.486L358.161 344.774L368.078 346.062L391.517 165.577L381.6 164.289ZM358.161 344.774L348.244 343.486C348.315 342.938 348.817 342.552 349.365 342.623L348.077 352.54L346.789 362.456C357.195 363.808 366.726 356.467 368.078 346.062L358.161 344.774ZM348.077 352.54L349.365 342.623L317.631 338.502L316.343 348.419L315.055 358.335L346.789 362.456L348.077 352.54ZM316.343 348.419L317.631 338.502C318.179 338.573 318.565 339.074 318.494 339.622L308.577 338.334L298.661 337.047C297.309 347.453 304.65 356.984 315.055 358.335L316.343 348.419ZM308.577 338.334L318.494 339.622L328.282 264.254L318.365 262.966L308.448 261.678L298.661 337.046L308.577 338.334ZM318.365 262.966L319.653 253.05L180.819 235.019L179.531 244.936L178.243 254.853L317.077 272.883L318.365 262.966ZM179.531 244.936L169.614 243.648L159.827 319.015L169.743 320.303L179.66 321.591L189.448 246.224L179.531 244.936ZM169.743 320.303L159.827 319.015C159.898 318.468 160.399 318.081 160.947 318.152L159.659 328.069L158.371 337.986C168.777 339.337 178.308 331.997 179.66 321.591L169.743 320.303ZM159.659 328.069L160.947 318.152L129.214 314.031L127.926 323.948L126.638 333.865L158.371 337.986L159.659 328.069ZM127.926 323.948L129.214 314.031C129.762 314.102 130.147 314.604 130.076 315.151L120.16 313.864L110.243 312.576C108.892 322.982 116.232 332.513 126.638 333.865L127.926 323.948ZM120.16 313.864L130.076 315.152L132.781 294.328L122.864 293.04L112.947 291.752L110.243 312.576L120.16 313.864ZM122.864 293.04L112.947 291.752C113.018 291.204 113.52 290.818 114.068 290.889L112.78 300.806L111.492 310.722C121.898 312.074 131.429 304.733 132.781 294.328L122.864 293.04ZM112.78 300.806L114.068 290.889L92.251 288.056L90.9631 297.972L89.6753 307.889L111.492 310.722L112.78 300.806ZM90.9631 297.972L92.2512 288.056C92.799 288.127 93.185 288.628 93.1139 289.176L83.1972 287.888L73.2804 286.601C71.9294 297.006 79.2693 306.537 89.675 307.889L90.9631 297.972ZM83.1972 287.888L93.1139 289.176L97.493 255.456L87.5763 254.168L77.6596 252.881L73.2805 286.6L83.1972 287.888ZM87.5763 254.168L77.6596 252.88C77.7308 252.333 78.2321 251.947 78.7799 252.018L77.4922 261.934L76.2045 271.851C86.6103 273.202 96.1414 265.862 97.493 255.457L87.5763 254.168ZM77.4922 261.934L78.7801 252.018L66.88 250.472L65.5921 260.389L64.3042 270.306L76.2043 271.851L77.4922 261.934ZM65.5921 260.389L66.88 250.472C67.428 250.543 67.814 251.045 67.7429 251.592L57.8261 250.305L47.9094 249.017C46.5583 259.423 53.8981 268.954 64.3042 270.306L65.5921 260.389ZM57.8261 250.305L67.7429 251.593L70.4474 230.768L60.5307 229.48L50.614 228.192L47.9094 249.017L57.8261 250.305ZM60.5307 229.48L61.8185 219.563L27.11 215.055L25.8221 224.972L24.5343 234.889L59.2428 239.396L60.5307 229.48ZM25.8221 224.972L27.11 215.055C24.3716 214.7 22.44 212.192 22.7956 209.453L12.8789 208.165L2.96214 206.877C1.18401 220.57 10.8421 233.111 24.5343 234.889L25.8221 224.972ZM12.8789 208.165L22.7956 209.453C23.1512 206.715 25.6595 204.783 28.3979 205.139L29.6858 195.222L30.9736 185.305C17.2815 183.527 4.74032 193.185 2.96214 206.877L12.8789 208.165ZM29.6858 195.222L28.3979 205.139L63.1064 209.646L64.3943 199.73L65.6822 189.813L30.9736 185.305L29.6858 195.222ZM64.3943 199.73L74.311 201.017L77.0155 180.192L67.0988 178.904L57.1821 177.617L54.4776 198.442L64.3943 199.73ZM67.0988 178.904L77.0155 180.192C76.9444 180.74 76.4428 181.126 75.8951 181.055L77.183 171.138L78.4708 161.222C68.0648 159.87 58.5335 167.211 57.1821 177.617L67.0988 178.904ZM77.183 171.138L75.8951 181.055L87.7951 182.601L89.083 172.684L90.3709 162.767L78.4708 161.222L77.183 171.138ZM89.083 172.684L87.795 182.601C87.2475 182.53 86.8611 182.028 86.9323 181.48L96.849 182.768L106.766 184.056C108.117 173.65 100.777 164.119 90.3711 162.767L89.083 172.684ZM96.849 182.768L106.766 184.056L111.144 150.342L101.227 149.054L91.3106 147.766L86.9323 181.48L96.849 182.768ZM101.227 149.054L111.144 150.342C111.073 150.89 110.571 151.276 110.024 151.205L111.312 141.288L112.599 131.371C102.194 130.02 92.6621 137.36 91.3106 147.766L101.227 149.054ZM111.312 141.288L110.024 151.205L131.84 154.038L133.128 144.121L134.416 134.205L112.599 131.371L111.312 141.288ZM133.128 144.121L131.84 154.038C131.293 153.967 130.906 153.465 130.978 152.918L140.894 154.206L150.811 155.493C152.162 145.087 144.822 135.556 134.416 134.205L133.128 144.121ZM140.894 154.206L150.811 155.493L153.516 134.667L143.599 133.38L133.682 132.092L130.978 152.918L140.894 154.206ZM143.599 133.38L153.516 134.667C153.445 135.215 152.943 135.601 152.395 135.53L153.683 125.614L154.971 115.697C144.565 114.345 135.034 121.686 133.682 132.092L143.599 133.38ZM153.683 125.614L152.395 135.53L184.129 139.651L185.417 129.735L186.704 119.818L154.971 115.697L153.683 125.614ZM410.796 180.183L409.509 190.1C408.962 190.029 408.575 189.528 408.647 188.979L418.563 190.267L428.48 191.555C429.832 181.148 422.489 171.617 412.084 170.266L410.796 180.183ZM418.563 190.267L408.647 188.979L404.273 222.656L414.19 223.944L424.106 225.232L428.48 191.555L418.563 190.267ZM414.19 223.944L424.101 225.274C424.028 225.82 423.527 226.205 422.98 226.134L424.268 216.217L425.555 206.3C415.176 204.952 405.669 212.251 404.279 222.614L414.19 223.944ZM424.268 216.217L422.98 226.134L434.88 227.679L436.168 217.762L437.456 207.846L425.556 206.3L424.268 216.217ZM436.168 217.762L434.88 227.679C434.332 227.608 433.946 227.106 434.017 226.559L443.934 227.846L453.851 229.134C455.202 218.728 447.862 209.197 437.456 207.846L436.168 217.762ZM443.934 227.846L434.017 226.559L431.313 247.383L441.23 248.671L451.146 249.958L453.851 229.134L443.934 227.846ZM441.23 248.671L439.942 258.587L474.65 263.095L475.938 253.178L477.226 243.261L442.517 238.754L441.23 248.671ZM475.938 253.178L474.65 263.095C477.388 263.45 479.32 265.959 478.965 268.697L488.881 269.985L498.798 271.273C500.576 257.581 490.918 245.04 477.226 243.261L475.938 253.178ZM488.881 269.985L478.965 268.697C478.609 271.436 476.101 273.367 473.362 273.012L472.074 282.928L470.787 292.845C484.479 294.623 497.02 284.965 498.798 271.273L488.881 269.985ZM472.074 282.928L473.362 273.012L438.654 268.504L437.366 278.421L436.078 288.337L470.787 292.845L472.074 282.928ZM437.366 278.421L427.449 277.133L424.745 297.959L434.661 299.247L444.578 300.535L447.283 279.709L437.366 278.421ZM434.661 299.247L424.745 297.959C424.816 297.411 425.317 297.025 425.865 297.096L424.577 307.013L423.289 316.93C433.695 318.281 443.226 310.94 444.578 300.535L434.661 299.247ZM424.577 307.013L425.865 297.096L413.965 295.551L412.677 305.467L411.389 315.384L423.289 316.93L424.577 307.013ZM412.677 305.467L413.965 295.551C414.513 295.622 414.898 296.122 414.829 296.668L404.907 295.421L394.985 294.175C393.682 304.549 401.008 314.036 411.389 315.384L412.677 305.467ZM404.907 295.421L394.99 294.133L390.616 327.813L400.533 329.101L410.45 330.389L414.824 296.709L404.907 295.421ZM400.533 329.101L390.616 327.813C390.688 327.265 391.189 326.879 391.736 326.95L390.449 336.867L389.162 346.784C399.567 348.135 409.098 340.795 410.45 330.389L400.533 329.101ZM390.449 336.867L391.737 326.95L369.92 324.117L368.632 334.034L367.344 343.951L389.161 346.784L390.449 336.867ZM368.632 334.034L369.92 324.117C370.468 324.188 370.854 324.69 370.783 325.238L360.866 323.95L350.95 322.662C349.598 333.068 356.938 342.599 367.344 343.951L368.632 334.034ZM360.866 323.95L370.783 325.238L388.813 186.403L378.896 185.116L368.98 183.828L350.95 322.662L360.866 323.95ZM378.896 185.116L388.813 186.403C388.742 186.95 388.241 187.337 387.692 187.266L388.98 177.349L390.267 167.433C379.861 166.082 370.331 173.423 368.98 183.828L378.896 185.116ZM388.98 177.349L387.692 187.266L409.509 190.1L410.796 180.183L412.084 170.266L390.267 167.433L388.98 177.349Z" fill="white" mask="url(#path-1-outside-1_2073_967)"/>
<mask id="path-3-outside-2_2073_967" maskUnits="userSpaceOnUse" x="745.795" y="91.7954" width="524.298" height="283.553" fill="black">
<rect fill="white" x="745.795" y="91.7954" width="524.298" height="283.553"/>
<path d="M1073.34 123.735C1068.41 124.375 1064.94 128.89 1065.58 133.819L1075.37 209.186L936.531 227.216L926.743 151.85C926.103 146.921 921.588 143.444 916.659 144.084L884.926 148.205C879.996 148.845 876.519 153.36 877.16 158.289L879.864 179.115C879.224 174.186 874.709 170.709 869.78 171.349L847.963 174.183C843.034 174.823 839.557 179.338 840.197 184.267L844.576 217.983C843.936 213.054 839.421 209.577 834.492 210.217L822.592 211.762C817.663 212.402 814.186 216.917 814.826 221.846L817.53 242.671L782.822 247.178C774.607 248.245 768.812 255.77 769.878 263.985C770.945 272.2 778.47 277.995 786.685 276.928L821.394 272.421L824.099 293.247C824.739 298.176 829.254 301.653 834.183 301.013L846.083 299.467C851.012 298.827 854.489 294.312 853.849 289.383L858.228 323.101C858.868 328.03 863.383 331.507 868.312 330.867L890.129 328.034C895.058 327.393 898.535 322.879 897.894 317.95L900.599 338.774C901.239 343.703 905.754 347.18 910.683 346.54L942.417 342.419C947.345 341.778 950.823 337.263 950.182 332.334L940.395 256.966L1079.23 238.936L1089.02 314.303C1089.66 319.232 1094.17 322.709 1099.1 322.069L1130.83 317.948C1135.76 317.308 1139.24 312.793 1138.6 307.864L1135.9 287.04C1136.54 291.969 1141.05 295.446 1145.98 294.806L1167.8 291.972C1172.73 291.332 1176.2 286.817 1175.56 281.888L1171.18 248.168C1171.82 253.097 1176.34 256.574 1181.27 255.934L1193.17 254.389C1198.1 253.749 1201.57 249.234 1200.93 244.305L1198.23 223.48L1232.94 218.972C1241.15 217.905 1246.95 210.381 1245.88 202.165C1244.81 193.95 1237.29 188.155 1229.07 189.222L1194.37 193.73L1191.66 172.904C1191.02 167.975 1186.51 164.498 1181.58 165.138L1169.68 166.684C1164.75 167.324 1161.27 171.839 1161.91 176.768L1157.53 143.054C1156.89 138.125 1152.38 134.648 1147.45 135.288L1125.63 138.121C1120.7 138.762 1117.23 143.276 1117.87 148.206L1115.16 127.38C1114.52 122.45 1110.01 118.974 1105.08 119.614L1073.34 123.735Z"/>
</mask>
<path d="M1073.34 123.735C1068.41 124.375 1064.94 128.89 1065.58 133.819L1075.37 209.186L936.531 227.216L926.743 151.85C926.103 146.921 921.588 143.444 916.659 144.084L884.926 148.205C879.996 148.845 876.519 153.36 877.16 158.289L879.864 179.115C879.224 174.186 874.709 170.709 869.78 171.349L847.963 174.183C843.034 174.823 839.557 179.338 840.197 184.267L844.576 217.983C843.936 213.054 839.421 209.577 834.492 210.217L822.592 211.762C817.663 212.402 814.186 216.917 814.826 221.846L817.53 242.671L782.822 247.178C774.607 248.245 768.812 255.77 769.878 263.985C770.945 272.2 778.47 277.995 786.685 276.928L821.394 272.421L824.099 293.247C824.739 298.176 829.254 301.653 834.183 301.013L846.083 299.467C851.012 298.827 854.489 294.312 853.849 289.383L858.228 323.101C858.868 328.03 863.383 331.507 868.312 330.867L890.129 328.034C895.058 327.393 898.535 322.879 897.894 317.95L900.599 338.774C901.239 343.703 905.754 347.18 910.683 346.54L942.417 342.419C947.345 341.778 950.823 337.263 950.182 332.334L940.395 256.966L1079.23 238.936L1089.02 314.303C1089.66 319.232 1094.17 322.709 1099.1 322.069L1130.83 317.948C1135.76 317.308 1139.24 312.793 1138.6 307.864L1135.9 287.04C1136.54 291.969 1141.05 295.446 1145.98 294.806L1167.8 291.972C1172.73 291.332 1176.2 286.817 1175.56 281.888L1171.18 248.168C1171.82 253.097 1176.34 256.574 1181.27 255.934L1193.17 254.389C1198.1 253.749 1201.57 249.234 1200.93 244.305L1198.23 223.48L1232.94 218.972C1241.15 217.905 1246.95 210.381 1245.88 202.165C1244.81 193.95 1237.29 188.155 1229.07 189.222L1194.37 193.73L1191.66 172.904C1191.02 167.975 1186.51 164.498 1181.58 165.138L1169.68 166.684C1164.75 167.324 1161.27 171.839 1161.91 176.768L1157.53 143.054C1156.89 138.125 1152.38 134.648 1147.45 135.288L1125.63 138.121C1120.7 138.762 1117.23 143.276 1117.87 148.206L1115.16 127.38C1114.52 122.45 1110.01 118.974 1105.08 119.614L1073.34 123.735Z" fill="#CCCCCC"/>
<path d="M1075.37 209.186L1085.28 207.898L1086.57 217.815L1076.65 219.103L1075.37 209.186ZM936.531 227.216L937.819 237.133L927.902 238.421L926.614 228.504L936.531 227.216ZM926.743 151.85L936.66 150.562L926.743 151.85ZM916.659 144.084L915.371 134.167L915.372 134.167L916.659 144.084ZM884.926 148.205L886.213 158.122L884.926 148.205ZM869.78 171.349L868.492 161.433L868.493 161.433L869.78 171.349ZM840.197 184.267L830.281 185.555L840.197 184.267ZM834.492 210.217L833.204 200.3L833.204 200.3L834.492 210.217ZM814.826 221.846L824.743 220.559L814.826 221.846ZM817.53 242.671L827.447 241.383L828.735 251.299L818.818 252.587L817.53 242.671ZM769.878 263.985L759.962 265.273L759.962 265.273L769.878 263.985ZM821.394 272.421L820.106 262.504L830.023 261.216L831.311 271.133L821.394 272.421ZM824.099 293.247L814.182 294.535L814.182 294.535L824.099 293.247ZM846.083 299.467L847.371 309.384L847.371 309.384L846.083 299.467ZM853.849 289.383L843.932 290.671L863.765 288.095L853.849 289.383ZM890.129 328.034L891.417 337.95L891.416 337.95L890.129 328.034ZM900.599 338.774L890.682 340.062L890.682 340.062L900.599 338.774ZM942.417 342.419L943.705 352.335L943.704 352.335L942.417 342.419ZM950.182 332.334L960.099 331.046L960.099 331.047L950.182 332.334ZM940.395 256.966L930.478 258.254L929.19 248.337L939.107 247.05L940.395 256.966ZM1079.23 238.936L1077.94 229.019L1087.86 227.732L1089.15 237.648L1079.23 238.936ZM1089.02 314.303L1079.1 315.591L1079.1 315.591L1089.02 314.303ZM1099.1 322.069L1100.39 331.986L1099.1 322.069ZM1130.83 317.948L1132.12 327.865L1132.12 327.865L1130.83 317.948ZM1138.6 307.864L1148.52 306.576L1148.52 306.576L1138.6 307.864ZM1135.9 287.04L1125.98 288.328L1145.81 285.751L1135.9 287.04ZM1167.8 291.972L1169.08 301.889L1169.08 301.889L1167.8 291.972ZM1175.56 281.888L1185.48 280.6L1185.48 280.601L1175.56 281.888ZM1171.18 248.168L1161.27 249.456L1181.1 246.88L1171.18 248.168ZM1181.27 255.934L1182.56 265.851L1182.56 265.851L1181.27 255.934ZM1200.93 244.305L1210.85 243.017L1210.85 243.017L1200.93 244.305ZM1198.23 223.48L1188.31 224.768L1187.02 214.851L1196.94 213.563L1198.23 223.48ZM1232.94 218.972L1234.23 228.889L1232.94 218.972ZM1245.88 202.165L1255.8 200.877L1255.8 200.877L1245.88 202.165ZM1229.07 189.222L1227.79 179.305L1229.07 189.222ZM1194.37 193.73L1195.65 203.646L1185.74 204.934L1184.45 195.017L1194.37 193.73ZM1191.66 172.904L1181.74 174.192L1191.66 172.904ZM1169.68 166.684L1168.39 156.767L1168.39 156.767L1169.68 166.684ZM1147.45 135.288L1146.16 125.371L1146.16 125.371L1147.45 135.288ZM1115.16 127.38L1105.24 128.667L1115.16 127.38ZM1105.08 119.614L1103.79 109.697L1103.79 109.697L1105.08 119.614ZM1073.34 123.735L1074.63 133.651C1075.18 133.58 1075.57 133.079 1075.49 132.531L1065.58 133.819L1055.66 135.107C1054.31 124.701 1061.65 115.169 1072.06 113.818L1073.34 123.735ZM1065.58 133.819L1075.49 132.531L1085.28 207.898L1075.37 209.186L1065.45 210.474L1055.66 135.107L1065.58 133.819ZM1075.37 209.186L1076.65 219.103L937.819 237.133L936.531 227.216L935.243 217.299L1074.08 199.269L1075.37 209.186ZM936.531 227.216L926.614 228.504L916.827 153.138L926.743 151.85L936.66 150.562L946.448 225.928L936.531 227.216ZM926.743 151.85L916.827 153.138C916.898 153.686 917.399 154.072 917.947 154.001L916.659 144.084L915.372 134.167C925.777 132.816 935.309 140.156 936.66 150.562L926.743 151.85ZM916.659 144.084L917.947 154.001L886.213 158.122L884.926 148.205L883.638 138.289L915.371 134.167L916.659 144.084ZM884.926 148.205L886.213 158.122C886.761 158.051 887.147 157.549 887.076 157.001L877.16 158.289L867.243 159.577C865.891 149.171 873.232 139.64 883.638 138.289L884.926 148.205ZM877.16 158.289L887.076 157.001L889.781 177.828L879.864 179.115L869.948 180.403L867.243 159.577L877.16 158.289ZM879.864 179.115L869.948 180.403C870.019 180.951 870.52 181.337 871.068 181.266L869.78 171.349L868.493 161.433C878.898 160.082 888.43 167.421 889.781 177.828L879.864 179.115ZM869.78 171.349L871.068 181.266L849.251 184.1L847.963 174.183L846.675 164.266L868.492 161.433L869.78 171.349ZM847.963 174.183L849.251 184.1C849.799 184.028 850.185 183.527 850.114 182.979L840.197 184.267L830.281 185.555C828.929 175.149 836.269 165.617 846.675 164.266L847.963 174.183ZM840.197 184.267L850.114 182.979L854.493 216.695L844.576 217.983L834.659 219.271L830.281 185.555L840.197 184.267ZM844.576 217.983L834.659 219.271C834.73 219.819 835.232 220.205 835.779 220.134L834.492 210.217L833.204 200.3C843.61 198.949 853.141 206.289 854.493 216.695L844.576 217.983ZM834.492 210.217L835.78 220.134L823.88 221.679L822.592 211.762L821.304 201.846L833.204 200.3L834.492 210.217ZM822.592 211.762L823.88 221.679C824.427 221.608 824.814 221.106 824.743 220.559L814.826 221.846L804.909 223.134C803.558 212.728 810.898 203.197 821.304 201.846L822.592 211.762ZM814.826 221.846L824.743 220.559L827.447 241.383L817.53 242.671L807.614 243.958L804.909 223.134L814.826 221.846ZM817.53 242.671L818.818 252.587L784.11 257.095L782.822 247.178L781.534 237.261L816.242 232.754L817.53 242.671ZM782.822 247.178L784.11 257.095C781.371 257.45 779.44 259.959 779.795 262.697L769.878 263.985L759.962 265.273C758.184 251.581 767.842 239.04 781.534 237.261L782.822 247.178ZM769.878 263.985L779.795 262.697C780.151 265.436 782.659 267.367 785.397 267.012L786.685 276.928L787.973 286.845C774.281 288.623 761.74 278.965 759.962 265.273L769.878 263.985ZM786.685 276.928L785.397 267.012L820.106 262.504L821.394 272.421L822.682 282.337L787.973 286.845L786.685 276.928ZM821.394 272.421L831.311 271.133L834.015 291.959L824.099 293.247L814.182 294.535L811.477 273.709L821.394 272.421ZM824.099 293.247L834.015 291.959C833.944 291.411 833.443 291.025 832.895 291.096L834.183 301.013L835.471 310.93C825.064 312.281 815.533 304.94 814.182 294.535L824.099 293.247ZM834.183 301.013L832.895 291.096L844.795 289.551L846.083 299.467L847.371 309.384L835.471 310.93L834.183 301.013ZM846.083 299.467L844.795 289.551C844.247 289.622 843.861 290.123 843.932 290.671L853.849 289.383L863.765 288.096C865.117 298.501 857.776 308.032 847.371 309.384L846.083 299.467ZM853.849 289.383L863.765 288.095L868.144 321.813L858.228 323.101L848.311 324.389L843.932 290.671L853.849 289.383ZM858.228 323.101L868.144 321.813C868.073 321.265 867.572 320.879 867.024 320.95L868.312 330.867L869.6 340.784C859.194 342.135 849.662 334.795 848.311 324.389L858.228 323.101ZM868.312 330.867L867.024 320.95L888.841 318.117L890.129 328.034L891.416 337.95L869.6 340.784L868.312 330.867ZM890.129 328.034L888.84 318.117C888.293 318.188 887.907 318.689 887.978 319.237L897.894 317.95L907.811 316.662C909.163 327.068 901.822 336.599 891.417 337.95L890.129 328.034ZM897.894 317.95L907.811 316.662L910.516 337.486L900.599 338.774L890.682 340.062L887.978 319.237L897.894 317.95ZM900.599 338.774L910.516 337.486C910.444 336.938 909.943 336.552 909.395 336.623L910.683 346.54L911.971 356.456C901.565 357.808 892.034 350.467 890.682 340.062L900.599 338.774ZM910.683 346.54L909.395 336.623L941.129 332.502L942.417 342.419L943.704 352.335L911.971 356.456L910.683 346.54ZM942.417 342.419L941.128 332.502C940.581 332.573 940.195 333.074 940.266 333.622L950.182 332.334L960.099 331.047C961.45 341.453 954.11 350.984 943.705 352.335L942.417 342.419ZM950.182 332.334L940.266 333.622L930.478 258.254L940.395 256.966L950.311 255.678L960.099 331.046L950.182 332.334ZM940.395 256.966L939.107 247.05L1077.94 229.019L1079.23 238.936L1080.52 248.853L941.682 266.883L940.395 256.966ZM1079.23 238.936L1089.15 237.648L1098.93 313.015L1089.02 314.303L1079.1 315.591L1069.31 240.224L1079.23 238.936ZM1089.02 314.303L1098.93 313.015C1098.86 312.468 1098.36 312.081 1097.81 312.152L1099.1 322.069L1100.39 331.986C1089.98 333.337 1080.45 325.997 1079.1 315.591L1089.02 314.303ZM1099.1 322.069L1097.81 312.152L1129.55 308.031L1130.83 317.948L1132.12 327.865L1100.39 331.986L1099.1 322.069ZM1130.83 317.948L1129.55 308.031C1129 308.102 1128.61 308.604 1128.68 309.151L1138.6 307.864L1148.52 306.576C1149.87 316.982 1142.53 326.513 1132.12 327.865L1130.83 317.948ZM1138.6 307.864L1128.68 309.152L1125.98 288.328L1135.9 287.04L1145.81 285.752L1148.52 306.576L1138.6 307.864ZM1135.9 287.04L1145.81 285.751C1145.74 285.204 1145.24 284.818 1144.69 284.889L1145.98 294.806L1147.27 304.722C1136.86 306.074 1127.33 298.733 1125.98 288.328L1135.9 287.04ZM1145.98 294.806L1144.69 284.889L1166.51 282.056L1167.8 291.972L1169.08 301.889L1147.27 304.722L1145.98 294.806ZM1167.8 291.972L1166.51 282.056C1165.96 282.127 1165.57 282.628 1165.65 283.176L1175.56 281.888L1185.48 280.601C1186.83 291.006 1179.49 300.537 1169.08 301.889L1167.8 291.972ZM1175.56 281.888L1165.65 283.176L1161.27 249.456L1171.18 248.168L1181.1 246.881L1185.48 280.6L1175.56 281.888ZM1171.18 248.168L1181.1 246.88C1181.03 246.333 1180.53 245.947 1179.98 246.018L1181.27 255.934L1182.56 265.851C1172.15 267.202 1162.62 259.862 1161.27 249.457L1171.18 248.168ZM1181.27 255.934L1179.98 246.018L1191.88 244.472L1193.17 254.389L1194.46 264.306L1182.56 265.851L1181.27 255.934ZM1193.17 254.389L1191.88 244.472C1191.33 244.543 1190.95 245.045 1191.02 245.592L1200.93 244.305L1210.85 243.017C1212.2 253.423 1204.86 262.954 1194.46 264.306L1193.17 254.389ZM1200.93 244.305L1191.02 245.593L1188.31 224.768L1198.23 223.48L1208.15 222.192L1210.85 243.017L1200.93 244.305ZM1198.23 223.48L1196.94 213.563L1231.65 209.055L1232.94 218.972L1234.23 228.889L1199.52 233.396L1198.23 223.48ZM1232.94 218.972L1231.65 209.055C1234.39 208.7 1236.32 206.192 1235.96 203.453L1245.88 202.165L1255.8 200.877C1257.58 214.57 1247.92 227.111 1234.23 228.889L1232.94 218.972ZM1245.88 202.165L1235.96 203.453C1235.61 200.715 1233.1 198.783 1230.36 199.139L1229.07 189.222L1227.79 179.305C1241.48 177.527 1254.02 187.185 1255.8 200.877L1245.88 202.165ZM1229.07 189.222L1230.36 199.139L1195.65 203.646L1194.37 193.73L1193.08 183.813L1227.79 179.305L1229.07 189.222ZM1194.37 193.73L1184.45 195.017L1181.74 174.192L1191.66 172.904L1201.58 171.617L1204.28 192.442L1194.37 193.73ZM1191.66 172.904L1181.74 174.192C1181.82 174.74 1182.32 175.126 1182.86 175.055L1181.58 165.138L1180.29 155.222C1190.69 153.87 1200.23 161.211 1201.58 171.617L1191.66 172.904ZM1181.58 165.138L1182.86 175.055L1170.96 176.601L1169.68 166.684L1168.39 156.767L1180.29 155.222L1181.58 165.138ZM1169.68 166.684L1170.96 176.601C1171.51 176.53 1171.9 176.028 1171.83 175.48L1161.91 176.768L1151.99 178.056C1150.64 167.65 1157.98 158.119 1168.39 156.767L1169.68 166.684ZM1161.91 176.768L1151.99 178.056L1147.62 144.342L1157.53 143.054L1167.45 141.766L1171.83 175.48L1161.91 176.768ZM1157.53 143.054L1147.62 144.342C1147.69 144.89 1148.19 145.276 1148.74 145.205L1147.45 135.288L1146.16 125.371C1156.57 124.021 1166.1 131.36 1167.45 141.766L1157.53 143.054ZM1147.45 135.288L1148.74 145.205L1126.92 148.038L1125.63 138.121L1124.34 128.205L1146.16 125.371L1147.45 135.288ZM1125.63 138.121L1126.92 148.038C1127.47 147.967 1127.85 147.465 1127.78 146.918L1117.87 148.206L1107.95 149.493C1106.6 139.087 1113.94 129.556 1124.34 128.205L1125.63 138.121ZM1117.87 148.206L1107.95 149.493L1105.24 128.667L1115.16 127.38L1125.08 126.092L1127.78 146.918L1117.87 148.206ZM1115.16 127.38L1105.24 128.667C1105.32 129.215 1105.82 129.601 1106.36 129.53L1105.08 119.614L1103.79 109.697C1114.19 108.346 1123.73 115.685 1125.08 126.092L1115.16 127.38ZM1105.08 119.614L1106.36 129.53L1074.63 133.651L1073.34 123.735L1072.06 113.818L1103.79 109.697L1105.08 119.614Z" fill="white" mask="url(#path-3-outside-2_2073_967)"/>
<mask id="path-5-outside-3_2073_967" maskUnits="userSpaceOnUse" x="773" y="191" width="312" height="311" fill="black">
<rect fill="white" x="773" y="191" width="312" height="311"/>
<path d="M1024.23 201C1052.33 201 1070.95 236.579 1070.95 257.414C1070.95 262.467 1069.86 266.189 1067.79 268.928C1069.42 283.866 1075.13 338.936 1075 376.306C1074.84 417.666 1071.53 465.13 1054.61 476.132C1047.39 480.823 1036.29 482.549 1025.93 482.987C1004.65 485.653 966.472 490.036 938.743 490.941C877.828 492.931 783 480.904 783 480.904V406.84C806.61 399 818.695 400.295 839.414 406.84C839.521 406.763 881.611 376.331 913.132 370.5C932.984 366.828 956.719 371.423 978.371 378.441C980.362 335.507 992.539 288.959 997.392 271.859C978.824 265.539 963.662 253.307 963.662 239.07C963.662 218.236 996.131 201 1024.23 201Z"/>
</mask>
<path d="M1024.23 201C1052.33 201 1070.95 236.579 1070.95 257.414C1070.95 262.467 1069.86 266.189 1067.79 268.928C1069.42 283.866 1075.13 338.936 1075 376.306C1074.84 417.666 1071.53 465.13 1054.61 476.132C1047.39 480.823 1036.29 482.549 1025.93 482.987C1004.65 485.653 966.472 490.036 938.743 490.941C877.828 492.931 783 480.904 783 480.904V406.84C806.61 399 818.695 400.295 839.414 406.84C839.521 406.763 881.611 376.331 913.132 370.5C932.984 366.828 956.719 371.423 978.371 378.441C980.362 335.507 992.539 288.959 997.392 271.859C978.824 265.539 963.662 253.307 963.662 239.07C963.662 218.236 996.131 201 1024.23 201Z" fill="#FFC786"/>
<path d="M1024.23 201L1024.23 191H1024.23V201ZM1070.95 257.414L1080.95 257.414V257.414H1070.95ZM1067.79 268.928L1059.8 262.915L1057.42 266.078L1057.85 270.012L1067.79 268.928ZM1075 376.306L1085 376.342L1075 376.306ZM1054.61 476.132L1060.06 484.516L1060.06 484.516L1054.61 476.132ZM1025.93 482.987L1025.5 472.996L1025.09 473.014L1024.68 473.065L1025.93 482.987ZM938.743 490.941L939.07 500.936H939.07L938.743 490.941ZM783 480.904H773V489.716L781.742 490.825L783 480.904ZM783 406.84L779.849 397.349L773 399.624V406.84H783ZM839.414 406.84L836.402 416.375L841.199 417.891L845.275 414.943L839.414 406.84ZM913.132 370.5L911.313 360.667L911.313 360.667L913.132 370.5ZM978.371 378.441L975.288 387.954L987.753 391.995L988.36 378.905L978.371 378.441ZM997.392 271.859L1007.01 274.589L1009.6 265.453L1000.61 262.393L997.392 271.859ZM963.662 239.07L953.662 239.07V239.07H963.662ZM1024.23 201L1024.23 211C1033.75 211 1042.79 217.065 1049.98 227.185C1057.17 237.31 1060.95 249.431 1060.95 257.414H1070.95H1080.95C1080.95 244.563 1075.42 228.476 1066.28 215.603C1057.13 202.725 1042.8 191 1024.23 191L1024.23 201ZM1070.95 257.414L1060.95 257.414C1060.95 261.058 1060.17 262.432 1059.8 262.915L1067.79 268.928L1075.79 274.94C1079.54 269.946 1080.95 263.877 1080.95 257.414L1070.95 257.414ZM1067.79 268.928L1057.85 270.012C1059.49 285.019 1065.13 339.547 1065 376.269L1075 376.306L1085 376.342C1085.14 338.326 1079.36 282.713 1077.74 267.843L1067.79 268.928ZM1075 376.306L1065 376.269C1064.92 396.809 1064.05 418.389 1061.22 436.014C1059.8 444.838 1057.94 452.279 1055.64 457.952C1053.27 463.812 1050.88 466.626 1049.16 467.748L1054.61 476.132L1060.06 484.516C1066.79 480.137 1071.17 472.892 1074.18 465.466C1077.26 457.852 1079.42 448.78 1080.96 439.192C1084.05 419.995 1084.92 397.163 1085 376.342L1075 376.306ZM1054.61 476.132L1049.16 467.748C1044.37 470.863 1035.65 472.567 1025.5 472.996L1025.93 482.987L1026.35 492.978C1036.93 492.531 1050.42 490.783 1060.06 484.516L1054.61 476.132ZM1025.93 482.987L1024.68 473.065C1003.4 475.731 965.634 480.058 938.417 480.947L938.743 490.941L939.07 500.936C967.309 500.014 1005.91 495.574 1027.17 492.91L1025.93 482.987ZM938.743 490.941L938.417 480.947C908.592 481.921 870.154 479.459 838.906 476.708C823.338 475.337 809.66 473.904 799.876 472.814C794.985 472.269 791.071 471.81 788.383 471.488C787.04 471.327 786.003 471.2 785.305 471.114C784.956 471.071 784.692 471.038 784.516 471.016C784.428 471.005 784.362 470.997 784.319 470.991C784.298 470.989 784.282 470.987 784.272 470.985C784.266 470.985 784.263 470.984 784.261 470.984C784.259 470.984 784.259 470.984 784.258 470.984C784.258 470.984 784.258 470.984 783 480.904C781.742 490.825 781.743 490.825 781.744 490.825C781.745 490.825 781.746 490.825 781.748 490.826C781.752 490.826 781.757 490.827 781.763 490.828C781.776 490.829 781.794 490.831 781.819 490.835C781.867 490.841 781.938 490.85 782.032 490.861C782.218 490.885 782.494 490.919 782.854 490.964C783.575 491.052 784.635 491.182 786.004 491.346C788.74 491.674 792.71 492.139 797.661 492.691C807.561 493.794 821.397 495.243 837.151 496.63C868.546 499.395 907.98 501.952 939.07 500.936L938.743 490.941ZM783 480.904H793V406.84H783H773V480.904H783ZM783 406.84L786.151 416.33C797.315 412.623 805.056 411.31 812.102 411.444C819.215 411.578 826.325 413.192 836.402 416.375L839.414 406.84L842.426 397.304C831.784 393.942 822.492 391.636 812.48 391.447C802.401 391.257 792.295 393.216 779.849 397.349L783 406.84ZM839.414 406.84L845.275 414.943C845.184 415.008 855.425 407.598 869.488 399.491C883.808 391.234 900.968 382.92 914.951 380.333L913.132 370.5L911.313 360.667C893.775 363.911 874.129 373.728 859.498 382.164C844.608 390.749 833.751 398.594 833.553 398.737L839.414 406.84ZM913.132 370.5L914.951 380.333C932.307 377.123 954.097 381.086 975.288 387.954L978.371 378.441L981.454 368.929C959.341 361.761 933.661 356.533 911.313 360.667L913.132 370.5ZM978.371 378.441L988.36 378.905C990.295 337.177 1002.2 291.549 1007.01 274.589L997.392 271.859L987.771 269.129C982.879 286.37 970.428 333.837 968.382 377.978L978.371 378.441ZM997.392 271.859L1000.61 262.393C992.296 259.562 985.183 255.539 980.338 251.077C975.452 246.579 973.662 242.435 973.662 239.07H963.662H953.662C953.662 249.942 959.453 259.034 966.79 265.79C974.168 272.583 983.919 277.837 994.169 281.326L997.392 271.859ZM963.662 239.07L973.662 239.07C973.662 234.018 977.91 227.124 988.519 220.818C998.633 214.806 1012.01 211 1024.23 211V201V191C1008.35 191 991.444 195.812 978.299 203.626C965.649 211.146 953.662 223.288 953.662 239.07L963.662 239.07Z" fill="white" mask="url(#path-5-outside-3_2073_967)"/>
<mask id="path-7-outside-4_2073_967" maskUnits="userSpaceOnUse" x="179" y="191" width="312" height="311" fill="black">
<rect fill="white" x="179" y="191" width="312" height="311"/>
<path d="M239.771 201C211.673 201 193.048 236.579 193.048 257.414C193.048 262.467 194.145 266.189 196.206 268.928C194.576 283.866 188.866 338.936 189.003 376.306C189.156 417.666 192.472 465.13 209.393 476.132C216.609 480.823 227.712 482.549 238.075 482.987C259.346 485.653 297.529 490.036 325.257 490.941C386.173 492.931 481 480.904 481 480.904V406.84C457.391 399 445.305 400.295 424.586 406.84C424.48 406.763 382.39 376.331 350.869 370.5C331.017 366.828 307.282 371.423 285.629 378.441C283.639 335.507 271.461 288.959 266.609 271.859C285.176 265.539 300.338 253.307 300.338 239.07C300.338 218.236 267.869 201 239.771 201Z"/>
</mask>
<path d="M239.771 201C211.673 201 193.048 236.579 193.048 257.414C193.048 262.467 194.145 266.189 196.206 268.928C194.576 283.866 188.866 338.936 189.003 376.306C189.156 417.666 192.472 465.13 209.393 476.132C216.609 480.823 227.712 482.549 238.075 482.987C259.346 485.653 297.529 490.036 325.257 490.941C386.173 492.931 481 480.904 481 480.904V406.84C457.391 399 445.305 400.295 424.586 406.84C424.48 406.763 382.39 376.331 350.869 370.5C331.017 366.828 307.282 371.423 285.629 378.441C283.639 335.507 271.461 288.959 266.609 271.859C285.176 265.539 300.338 253.307 300.338 239.07C300.338 218.236 267.869 201 239.771 201Z" fill="#FFC786"/>
<path d="M239.771 201L239.771 191H239.771V201ZM193.048 257.414L183.048 257.414V257.414H193.048ZM196.206 268.928L204.196 262.915L206.576 266.078L206.147 270.012L196.206 268.928ZM189.003 376.306L179.003 376.342L189.003 376.306ZM209.393 476.132L203.942 484.516L203.942 484.516L209.393 476.132ZM238.075 482.987L238.497 472.996L238.909 473.014L239.318 473.065L238.075 482.987ZM325.257 490.941L324.931 500.936H324.931L325.257 490.941ZM481 480.904H491V489.716L482.259 490.825L481 480.904ZM481 406.84L484.152 397.349L491 399.624V406.84H481ZM424.586 406.84L427.599 416.375L422.802 417.891L418.726 414.943L424.586 406.84ZM350.869 370.5L352.687 360.667L352.688 360.667L350.869 370.5ZM285.629 378.441L288.713 387.954L276.247 391.995L275.64 378.905L285.629 378.441ZM266.609 271.859L256.989 274.589L254.396 265.453L263.387 262.393L266.609 271.859ZM300.338 239.07L310.338 239.07V239.07H300.338ZM239.771 201L239.771 211C230.248 211 221.214 217.065 214.025 227.185C206.833 237.31 203.048 249.431 203.048 257.414H193.048H183.048C183.048 244.563 188.576 228.476 197.72 215.603C206.869 202.725 221.196 191 239.771 191L239.771 201ZM193.048 257.414L203.048 257.414C203.048 261.058 203.832 262.432 204.196 262.915L196.206 268.928L188.215 274.94C184.457 269.946 183.048 263.877 183.048 257.414L193.048 257.414ZM196.206 268.928L206.147 270.012C204.509 285.019 198.868 339.547 199.003 376.269L189.003 376.306L179.003 376.342C178.863 338.326 184.642 282.713 186.265 267.843L196.206 268.928ZM189.003 376.306L199.003 376.269C199.079 396.809 199.946 418.389 202.783 436.014C204.203 444.838 206.058 452.279 208.357 457.952C210.733 463.812 213.117 466.626 214.844 467.748L209.393 476.132L203.942 484.516C197.208 480.137 192.833 472.892 189.822 465.466C186.736 457.852 184.58 448.78 183.037 439.192C179.947 419.995 179.08 397.163 179.003 376.342L189.003 376.306ZM209.393 476.132L214.844 467.748C219.635 470.863 228.35 472.567 238.497 472.996L238.075 482.987L237.652 492.978C227.073 492.531 213.583 490.783 203.942 484.516L209.393 476.132ZM238.075 482.987L239.318 473.065C260.596 475.731 298.367 480.058 325.584 480.947L325.257 490.941L324.931 500.936C296.691 500.014 258.095 495.574 236.831 492.91L238.075 482.987ZM325.257 490.941L325.584 480.947C355.409 481.921 393.847 479.459 425.095 476.708C440.662 475.337 454.341 473.904 464.125 472.814C469.015 472.269 472.93 471.81 475.617 471.488C476.961 471.327 477.997 471.2 478.695 471.114C479.044 471.071 479.309 471.038 479.484 471.016C479.572 471.005 479.638 470.997 479.681 470.991C479.703 470.989 479.719 470.987 479.729 470.985C479.734 470.985 479.738 470.984 479.74 470.984C479.741 470.984 479.742 470.984 479.742 470.984C479.742 470.984 479.742 470.984 481 480.904C482.259 490.825 482.258 490.825 482.257 490.825C482.256 490.825 482.254 490.825 482.252 490.826C482.249 490.826 482.244 490.827 482.237 490.828C482.225 490.829 482.206 490.831 482.182 490.835C482.133 490.841 482.062 490.85 481.969 490.861C481.782 490.885 481.507 490.919 481.146 490.964C480.425 491.052 479.365 491.182 477.997 491.346C475.26 491.674 471.29 492.139 466.339 492.691C456.439 493.794 442.603 495.243 426.849 496.63C395.455 499.395 356.021 501.952 324.931 500.936L325.257 490.941ZM481 480.904H471V406.84H481H491V480.904H481ZM481 406.84L477.849 416.33C466.685 412.623 458.944 411.31 451.898 411.444C444.786 411.578 437.676 413.192 427.599 416.375L424.586 406.84L421.574 397.304C432.216 393.942 441.508 391.636 451.52 391.447C461.599 391.257 471.706 393.216 484.152 397.349L481 406.84ZM424.586 406.84L418.726 414.943C418.817 415.008 408.575 407.598 394.513 399.491C380.192 391.234 363.033 382.92 349.05 380.333L350.869 370.5L352.688 360.667C370.226 363.911 389.872 373.728 404.503 382.164C419.393 390.749 430.249 398.594 430.447 398.737L424.586 406.84ZM350.869 370.5L349.05 380.333C331.694 377.123 309.904 381.086 288.713 387.954L285.629 378.441L282.546 368.929C304.66 361.761 330.34 356.533 352.687 360.667L350.869 370.5ZM285.629 378.441L275.64 378.905C273.706 337.177 261.801 291.549 256.989 274.589L266.609 271.859L276.229 269.129C281.122 286.37 293.572 333.837 295.619 377.978L285.629 378.441ZM266.609 271.859L263.387 262.393C271.704 259.562 278.817 255.539 283.663 251.077C288.548 246.579 290.338 242.435 290.338 239.07H300.338H310.338C310.338 249.942 304.548 259.034 297.21 265.79C289.833 272.583 280.081 277.837 269.831 281.326L266.609 271.859ZM300.338 239.07L290.338 239.07C290.338 234.018 286.09 227.124 275.481 220.818C265.367 214.806 251.986 211 239.771 211V201V191C255.654 191 272.556 195.812 285.701 203.626C298.352 211.146 310.338 223.288 310.338 239.07L300.338 239.07Z" fill="white" mask="url(#path-7-outside-4_2073_967)"/>
<mask id="path-9-outside-5_2073_967" maskUnits="userSpaceOnUse" x="423.958" y="0" width="416" height="764" fill="black">
<rect fill="white" x="423.958" width="416" height="764"/>
<path d="M790 357C812.092 357 830.108 374.921 828.994 396.985C824.421 487.589 804.409 572.755 772.007 637.722C734.875 712.173 684.513 754 632 754C579.488 754 529.125 712.174 491.993 637.722C459.591 572.755 439.579 487.589 435.007 396.985C433.893 374.921 451.909 357 474 357H790ZM630.974 10C716.408 10 785.666 79.2584 785.666 164.692C785.666 250.126 716.408 319.384 630.974 319.384C545.54 319.384 476.283 250.126 476.283 164.692C476.283 79.2584 545.54 10 630.974 10Z"/>
</mask>
<path d="M790 357C812.092 357 830.108 374.921 828.994 396.985C824.421 487.589 804.409 572.755 772.007 637.722C734.875 712.173 684.513 754 632 754C579.488 754 529.125 712.174 491.993 637.722C459.591 572.755 439.579 487.589 435.007 396.985C433.893 374.921 451.909 357 474 357H790ZM630.974 10C716.408 10 785.666 79.2584 785.666 164.692C785.666 250.126 716.408 319.384 630.974 319.384C545.54 319.384 476.283 250.126 476.283 164.692C476.283 79.2584 545.54 10 630.974 10Z" fill="#FFC786"/>
<path d="M772.007 637.722L780.956 642.185L772.007 637.722ZM632 754V764H632L632 754ZM491.993 637.722L483.044 642.185L491.993 637.722ZM630.974 10V0V10ZM785.666 164.692L795.666 164.692V164.692H785.666ZM630.974 319.384V329.384V319.384ZM476.283 164.692H466.283V164.692L476.283 164.692ZM828.994 396.985L819.007 396.481L828.994 396.985ZM828.994 396.985L819.007 396.481C814.486 486.061 794.704 569.807 763.058 633.259L772.007 637.722L780.956 642.185C814.114 575.702 834.357 489.117 838.981 397.489L828.994 396.985ZM772.007 637.722L763.058 633.259C726.54 706.48 678.794 744 632 744L632 754L632 764C690.232 764 743.21 717.867 780.956 642.185L772.007 637.722ZM632 754V744C585.207 744 537.46 706.48 500.941 633.259L491.993 637.722L483.044 642.185C520.79 717.867 573.768 764 632 764V754ZM491.993 637.722L500.941 633.259C469.295 569.807 449.515 486.061 444.994 396.481L435.007 396.985L425.019 397.489C429.644 489.117 449.886 575.702 483.044 642.185L491.993 637.722ZM474 357V367H790V357V347H474V357ZM630.974 10V20C710.885 20 775.666 84.7812 775.666 164.692H785.666H795.666C795.666 73.7356 721.931 0 630.974 0V10ZM785.666 164.692L775.666 164.692C775.666 244.603 710.885 309.384 630.974 309.384V319.384V329.384C721.931 329.384 795.666 255.649 795.666 164.692L785.666 164.692ZM630.974 319.384V309.384C551.063 309.384 486.283 244.603 486.283 164.692L476.283 164.692L466.283 164.692C466.283 255.649 540.017 329.384 630.974 329.384V319.384ZM476.283 164.692H486.283C486.283 84.7812 551.063 20 630.974 20V10V0C540.017 8.58307e-06 466.283 73.7356 466.283 164.692H476.283ZM435.007 396.985L444.994 396.481C444.185 380.465 457.29 367 474 367V357V347C446.528 347 423.6 369.378 425.019 397.489L435.007 396.985ZM828.994 396.985L838.981 397.489C840.4 369.378 817.473 347 790 347V357V367C806.711 367 819.815 380.465 819.007 396.481L828.994 396.985Z" fill="white" mask="url(#path-9-outside-5_2073_967)"/>
</svg>
