<svg width="482" height="805" viewBox="0 0 482 805" fill="none" xmlns="http://www.w3.org/2000/svg">
<path d="M240.968 407.766C305.184 407.766 366.77 449.573 412.177 523.991C451.799 588.926 476.27 674.049 481.863 764.608C483.225 786.657 465.186 804.584 443.094 804.584H38.8414C16.75 804.584 -1.28948 786.657 0.0723736 764.608C5.66564 674.049 30.137 588.926 69.7583 523.991C115.166 449.573 176.752 407.766 240.968 407.766Z" fill="#FFC786"/>
<circle cx="240.969" cy="210.692" r="154.692" fill="#FFC786"/>
<path d="M240.403 478C252.375 478 262.297 487.281 263.095 499.227L278.377 728.113L278.413 728.794C278.682 735.599 276.161 742.222 271.435 747.126L270.955 747.61L256.522 761.792C246.948 771.2 231.691 771.347 221.938 762.233L221.478 761.792L207.146 747.71C201.876 742.531 199.167 735.287 199.745 727.921L217.73 498.961L217.781 498.408C218.97 486.845 228.719 478 240.403 478Z" fill="#598AA1" stroke="white" stroke-width="10"/>
<path d="M261.923 504.888C252.154 521.166 228.397 521.036 218.85 504.5L181.178 439.25L180.956 438.858C171.743 422.259 183.733 401.75 202.828 401.75L278.172 401.75C297.417 401.75 309.445 422.583 299.822 439.25L262.15 504.5L261.923 504.888Z" fill="#598AA1" stroke="white" stroke-width="10"/>
<path d="M233.282 5.38965C257.941 4.08213 284.105 5.95455 305.731 12.6553C326.016 18.9403 343.292 29.8172 350.595 47.3027C361.042 48.5739 371.527 55.3116 380.7 64.8271C391.049 75.5627 400.409 90.5055 407.046 107.677C420.304 141.976 423.045 186.16 399.777 224.59L393.094 235.628L390.595 222.969C383.162 185.327 377.786 165.336 371.608 151.57C365.957 138.977 359.601 131.482 349.599 120.004C316.187 133.579 273.702 139.364 233.347 138.897C193.73 138.44 155.459 131.948 129.284 120.341C111.844 147.132 101.108 177.98 94.4619 231.615L92.5557 247.001L85.1133 233.4C55.2463 178.816 61.4944 126.938 79.9785 90.4805C89.1913 72.3095 101.508 57.837 114.062 48.75C123.699 41.774 134.192 37.5066 143.706 38.1143C143.762 37.8021 143.826 37.4893 143.905 37.1777C144.689 34.0808 146.506 31.3918 148.759 29.1035C153.197 24.5955 160.189 20.777 168.409 17.6074C185.005 11.2083 208.628 6.69692 233.282 5.38965Z" fill="#FCB052" stroke="white" stroke-width="10"/>
</svg>
