<svg width="470" height="741" viewBox="0 0 470 741" fill="none" xmlns="http://www.w3.org/2000/svg">
<circle cx="247.744" cy="206.058" r="136.886" fill="#FFC786"/>
<path d="M216.589 4.57715C221.755 4.54482 228.35 5.15418 235.265 6.79688C247.37 9.67292 261.254 15.9298 269.616 28.2969C284.154 15.627 303.213 9.21433 319.211 7.2334C328.02 6.1426 336.204 6.35452 342.474 7.77734C345.592 8.48509 348.486 9.54743 350.767 11.0967C353.061 12.6556 355.111 14.9913 355.539 18.2109L355.599 18.7705C356.057 24.4864 351.652 28.0758 347.951 30.2285C343.911 32.5783 338.376 34.5842 333.194 36.5537C327.793 38.6065 322.491 40.7136 318.1 43.3584C315.53 44.9062 313.451 46.5339 311.899 48.2852C354.909 64.7271 380.132 95.1864 389.17 125.479C398.49 156.714 390.625 188.634 365.923 203.051L360.94 205.959L359.424 200.393C353.306 177.945 350.601 171.274 347.3 166.726C345.584 164.361 343.725 162.571 340.599 159.234C338.231 156.708 335.388 153.539 331.826 148.986C319.136 162.046 299.816 176.256 282.335 186.903C272.676 192.786 263.401 197.691 255.925 200.76C252.207 202.286 248.765 203.428 245.854 203.968C244.4 204.237 242.925 204.386 241.53 204.292C240.256 204.206 238.73 203.896 237.357 202.989L237.085 202.8C235.772 201.839 235.241 200.501 235.018 199.835C234.751 199.039 234.608 198.198 234.521 197.438C234.346 195.902 234.331 194.016 234.402 191.983C234.547 187.877 235.076 182.517 235.791 176.728C236.593 170.229 237.649 163.049 238.711 156.244C213.276 180.473 183.786 180.96 150.442 186.323C152.764 192.313 154.197 197.681 153.948 202.886C153.615 209.871 150.334 215.806 144.373 222.184L141.262 225.513L138.026 222.305C131.596 215.93 127.349 211.508 124.854 205.759C122.838 201.112 122.066 195.829 121.554 188.436C120.834 188.741 120.094 189.084 119.238 189.479C118.315 189.904 117.28 190.379 116.173 190.826C111.501 192.715 105.745 194.034 97.5625 191.927L93.3623 190.845L94.3604 186.624C105.71 138.607 119.226 108.101 139.802 86.0801C159.116 65.41 184.273 52.6398 218.295 39.5225C213.319 34.1574 209.854 28.2429 207.53 23.3252C205.975 20.0347 204.902 17.1304 204.214 15.0342C203.869 13.9845 203.619 13.1326 203.453 12.5312C203.37 12.2307 203.308 11.9922 203.265 11.8223C203.243 11.7373 203.226 11.6691 203.214 11.6191L203.194 11.5371C203.194 11.5343 203.193 11.5315 203.192 11.5293C203.192 11.5282 203.192 11.5269 203.191 11.5264C203.194 11.5243 203.311 11.4958 207.499 10.5166L203.19 11.5234L202.617 9.07129L204.434 7.32617C205.354 6.44228 206.464 5.98852 207.174 5.74316C207.993 5.45978 208.904 5.24934 209.834 5.08984C211.703 4.76923 214.013 4.59328 216.589 4.57715Z" fill="#FCB052" stroke="white" stroke-width="8.84896"/>
<path d="M0 533.738C0 505.393 22.9785 482.414 51.3239 482.414H110.612V728.415H37.1657C16.6397 728.415 0 711.775 0 691.249V533.738Z" fill="#598AA1"/>
<mask id="path-4-outside-1_2073_1193" maskUnits="userSpaceOnUse" x="25.5107" y="371.43" width="445" height="369" fill="black">
<rect fill="white" x="25.5107" y="371.43" width="445" height="369"/>
<path d="M247.742 380.43C304.567 380.43 359.063 417.425 399.244 483.277C434.305 540.738 455.96 616.062 460.91 696.197C462.115 715.709 446.152 731.572 426.603 731.572H68.8813C49.3327 731.572 33.3697 715.709 34.5748 696.197C39.5242 616.063 61.1787 540.738 96.2393 483.277C136.42 417.425 190.918 380.43 247.742 380.43Z"/>
</mask>
<path d="M247.742 380.43C304.567 380.43 359.063 417.425 399.244 483.277C434.305 540.738 455.96 616.062 460.91 696.197C462.115 715.709 446.152 731.572 426.603 731.572H68.8813C49.3327 731.572 33.3697 715.709 34.5748 696.197C39.5242 616.063 61.1787 540.738 96.2393 483.277C136.42 417.425 190.918 380.43 247.742 380.43Z" fill="#FFC786"/>
<path d="M247.742 380.43L247.742 371.581H247.742V380.43ZM399.244 483.277L406.798 478.668V478.668L399.244 483.277ZM96.2393 483.277L88.6855 478.668L88.6855 478.668L96.2393 483.277ZM460.91 696.197L452.078 696.743L460.91 696.197ZM247.742 380.43L247.742 389.279C300.421 389.279 352.473 423.614 391.69 487.886L399.244 483.277L406.798 478.668C365.653 411.237 308.712 371.581 247.742 371.581L247.742 380.43ZM399.244 483.277L391.69 487.886C425.859 543.886 447.198 617.749 452.078 696.743L460.91 696.197L469.742 695.652C464.722 614.376 442.75 537.59 406.798 478.668L399.244 483.277ZM426.603 731.572V722.723H68.8813V731.572V740.421H426.603V731.572ZM34.5748 696.197L43.4069 696.743C48.2859 617.749 69.6243 543.886 103.793 487.886L96.2393 483.277L88.6855 478.668C52.7332 537.59 30.7626 614.376 25.7427 695.652L34.5748 696.197ZM96.2393 483.277L103.793 487.886C143.01 423.614 195.063 389.279 247.742 389.279V380.43V371.581C186.772 371.581 129.83 411.237 88.6855 478.668L96.2393 483.277ZM68.8813 731.572V722.723C54.0639 722.723 42.5387 710.8 43.4069 696.743L34.5748 696.197L25.7427 695.652C24.2007 720.618 44.6015 740.421 68.8813 740.421V731.572ZM460.91 696.197L452.078 696.743C452.946 710.8 441.421 722.723 426.603 722.723V731.572V740.421C450.883 740.421 471.284 720.618 469.742 695.652L460.91 696.197Z" fill="white" mask="url(#path-4-outside-1_2073_1193)"/>
<path d="M142.495 421.054C144.279 420.028 146.088 420.473 147.129 421.062C148.009 421.559 148.558 422.232 148.81 422.563C149.372 423.303 149.826 424.21 150.184 425.005C150.944 426.696 151.809 429.125 152.742 432.096C154.626 438.092 156.957 446.839 159.461 457.615C164.474 479.187 170.236 509.132 174.533 541.947C178.829 574.751 181.673 610.525 180.813 643.722C179.956 676.821 175.41 707.804 164.612 730.747L163.416 733.288H93.3584L95.3652 727.429C110.463 683.361 110.546 622.421 106.698 572.02C104.782 546.913 101.906 524.596 99.5098 508.556C98.3118 500.538 97.234 494.093 96.457 489.659C96.0686 487.443 95.7555 485.729 95.54 484.572C95.4324 483.994 95.349 483.555 95.293 483.263C95.265 483.116 95.2435 483.006 95.2295 482.934C95.2225 482.898 95.2172 482.871 95.2139 482.854C95.2122 482.845 95.2107 482.839 95.21 482.835L95.209 482.83L94.832 480.908L96.001 479.337L99.5508 481.978C96.0177 479.35 96.0007 479.336 96.001 479.336C96.0013 479.336 96.0023 479.335 96.0029 479.334C96.0042 479.332 96.0054 479.329 96.0078 479.326C96.0128 479.32 96.0206 479.31 96.0303 479.297C96.0498 479.271 96.079 479.232 96.1172 479.181C96.1937 479.078 96.3072 478.925 96.4551 478.727C96.7509 478.33 97.1853 477.748 97.7393 477.007C98.8475 475.524 100.435 473.402 102.356 470.847C106.199 465.737 111.378 458.888 116.716 451.937C122.049 444.991 127.562 437.918 132.067 432.371C134.317 429.602 136.343 427.177 137.985 425.328C138.804 424.406 139.56 423.591 140.219 422.934C140.8 422.354 141.553 421.643 142.322 421.158L142.495 421.054Z" fill="#598AA1" stroke="white" stroke-width="8.84896"/>
</svg>
