<svg width="482" height="749" viewBox="0 0 482 749" fill="none" xmlns="http://www.w3.org/2000/svg">
<path d="M240.968 351.766C305.184 351.766 366.77 393.573 412.177 467.991C451.799 532.926 476.27 618.049 481.863 708.608C483.225 730.657 465.186 748.584 443.094 748.584H38.8414C16.75 748.584 -1.28948 730.657 0.0723736 708.608C5.66564 618.049 30.137 532.926 69.7583 467.991C115.166 393.573 176.752 351.766 240.968 351.766Z" fill="#FFC786"/>
<circle cx="240.968" cy="154.692" r="154.692" fill="#FFC786"/>
<path d="M242.501 339.5L240.992 344.267L242.487 344.74L243.985 344.274L242.501 339.5ZM242.501 339.5C243.916 344.051 243.983 344.264 243.987 344.273C243.988 344.273 243.99 344.273 243.991 344.272C243.994 344.271 243.999 344.27 244.005 344.269C244.016 344.265 244.031 344.26 244.05 344.254C244.089 344.242 244.146 344.224 244.22 344.201C244.367 344.155 244.583 344.085 244.863 343.995C245.424 343.815 246.244 343.547 247.295 343.196C249.397 342.494 252.424 341.458 256.151 340.106C263.601 337.405 273.869 333.443 285.148 328.396C307.522 318.383 334.577 303.797 351.168 285.899L352.094 284.893C391.052 242.175 402.001 185.912 402.001 146L392.002 145.926C391.528 177.674 378.017 202.702 362.462 219.354C354.676 227.688 346.453 233.839 339.244 237.647C332.032 241.458 326.656 242.499 323.847 242.055C299.033 232.807 279.277 223.511 255.255 221.325C231.025 219.121 202.748 224.08 159.893 241.859C158.69 241.743 156.994 241.312 154.787 240.368C152.111 239.224 148.998 237.462 145.59 235.112C138.777 230.415 131.114 223.593 123.856 215.39C109.258 198.89 97.0621 177.691 95.8525 157.988C95.9248 154.096 96.1355 150.248 96.4805 146.453L86.5752 145.139C85.8198 149.458 85.6077 153.828 85.8477 158.194C85.1604 200.378 99.8546 247.013 135.308 285.87L136.078 286.704C152.42 304.168 178.614 318.462 200.346 328.335C211.477 333.392 221.616 337.367 228.974 340.079C232.654 341.436 235.644 342.478 237.721 343.184C238.759 343.536 239.57 343.805 240.124 343.986C240.401 344.077 240.615 344.145 240.761 344.192C240.834 344.216 240.89 344.235 240.929 344.247C240.948 344.253 240.963 344.257 240.974 344.261C240.979 344.262 240.983 344.264 240.986 344.265C240.988 344.265 240.989 344.266 240.99 344.267C240.992 344.266 241.013 344.203 242.501 339.5Z" fill="#FCB052" stroke="white" stroke-width="10"/>
<ellipse cx="240.501" cy="261.5" rx="44.5" ry="18.5" fill="#FFC786" stroke="white" stroke-width="10"/>
</svg>
