<svg width="482" height="749" viewBox="0 0 482 749" fill="none" xmlns="http://www.w3.org/2000/svg">
<path d="M240.968 351.766C305.184 351.766 366.77 393.573 412.177 467.991C451.799 532.926 476.27 618.049 481.863 708.608C483.225 730.657 465.186 748.584 443.094 748.584H38.8414C16.75 748.584 -1.28948 730.657 0.0723736 708.608C5.66564 618.049 30.137 532.926 69.7583 467.991C115.166 393.573 176.752 351.766 240.968 351.766Z" fill="#FFC786"/>
<circle cx="240.968" cy="154.692" r="154.692" fill="#FFC786"/>
<path d="M226 154.502C226 154.502 235.141 149.375 241.5 149.502C247.489 149.622 256 154.502 256 154.502" stroke="white" stroke-width="25"/>
<path d="M397.889 149.504C404.243 146.804 407.204 139.464 404.504 133.111C401.804 126.757 394.464 123.796 388.111 126.496L397.889 149.504ZM353 155L357.889 166.504L397.889 149.504L393 138L388.111 126.496L348.111 143.496L353 155Z" fill="white"/>
<path d="M84.1107 149.504C77.7572 146.804 74.7956 139.464 77.4959 133.111C80.1961 126.757 87.5357 123.796 93.8893 126.496L84.1107 149.504ZM129 155L124.111 166.504L84.1107 149.504L89 138L93.8893 126.496L133.889 143.496L129 155Z" fill="white"/>
<circle cx="178" cy="155" r="45" fill="white" fill-opacity="0.4" stroke="black" stroke-width="10"/>
<circle cx="178" cy="155" r="54" stroke="white" stroke-width="8"/>
<circle cx="304" cy="155" r="45" fill="white" fill-opacity="0.4" stroke="black" stroke-width="10"/>
<circle cx="304" cy="155" r="54" stroke="white" stroke-width="8"/>
<path d="M226 154.502C226 154.502 235.141 149.375 241.5 149.502C247.489 149.622 256 154.502 256 154.502" stroke="black" stroke-width="10" stroke-linecap="round"/>
<path d="M353 155L393 138" stroke="black" stroke-width="10" stroke-linecap="round"/>
<path d="M129 155L89 138" stroke="black" stroke-width="10" stroke-linecap="round"/>
<path d="M194.574 267.123C204.685 259.32 220.153 252.032 241.383 253.912L242.351 254.003C262.549 255.978 274.667 263.047 281.789 270.169C285.37 273.75 287.592 277.25 288.934 279.924C289.604 281.26 290.055 282.389 290.347 283.223C290.484 283.616 290.586 283.944 290.66 284.197C296.19 296.479 298.624 306.356 298.333 316.238C298.041 326.121 295.029 335.532 290.59 346.734C288.637 351.663 287.211 358.895 286.238 367.294C285.275 375.605 284.791 384.714 284.578 393.207C284.365 401.689 284.424 409.495 284.536 415.182C284.592 418.023 284.662 420.332 284.718 421.926C284.745 422.723 284.769 423.341 284.786 423.758C284.795 423.966 284.802 424.124 284.807 424.229C284.809 424.281 284.81 424.32 284.812 424.346C284.812 424.358 284.812 424.368 284.812 424.374V424.381L285.22 433.125L277.481 429.033C271.574 425.91 266.593 419.758 263.089 413.805C261.823 411.655 260.677 409.4 259.702 407.155C253.321 418.053 250.096 428.66 245.804 446.559L241.591 464.126L236.172 446.893C233.581 438.654 230.865 431.835 228.323 425.731C225.814 419.704 223.363 414.124 221.5 408.741C219.725 403.611 218.452 398.573 217.963 393.132C216.986 397.081 216.337 402.06 215.804 408.997L214.447 426.629L206.37 410.896C201.74 401.878 197.067 394.585 192.419 386.935C188.085 379.801 183.847 372.471 180.063 363.584L179.312 361.785C173.647 347.931 169.582 335.569 169.06 323.001C168.53 310.266 171.643 297.734 179.57 283.465L179.587 283.435L179.604 283.404L183.941 285.893C179.605 283.404 179.606 283.402 179.607 283.399C179.608 283.398 179.609 283.396 179.61 283.395C179.613 283.391 179.615 283.387 179.618 283.382C179.624 283.372 179.63 283.361 179.638 283.348C179.653 283.321 179.673 283.287 179.697 283.246C179.746 283.165 179.812 283.055 179.896 282.919C180.065 282.647 180.306 282.268 180.62 281.801C181.248 280.867 182.17 279.572 183.398 278.047C185.85 275.002 189.546 271.003 194.574 267.123Z" fill="#DDDDDD" stroke="white" stroke-width="10"/>
</svg>
