<svg width="451" height="792" viewBox="0 0 451 792" fill="none" xmlns="http://www.w3.org/2000/svg">
<path d="M225.187 420.75C285.197 420.75 342.75 459.819 385.184 529.363C422.21 590.046 445.079 669.594 450.306 754.222C451.579 774.827 434.721 791.58 414.076 791.58H36.2985C15.654 791.58 -1.20405 774.827 0.0686093 754.222C5.29554 669.594 28.1642 590.046 65.1907 529.363C107.624 459.819 165.177 420.75 225.187 420.75Z" fill="#FFC786"/>
<circle cx="225.187" cy="236.572" r="144.56" fill="#FFC786"/>
<path d="M338.113 19.9678C342.175 38.0445 336.969 56.6421 322.857 78.6279C333.675 78.1709 343.208 78.1285 352.645 79.7266C364.875 81.7978 376.716 86.565 391.226 96.1816L395.776 99.1982L392.094 103.229C381.982 114.295 374.327 119.895 360.659 126.336C367.261 138.791 372.593 148.657 376.382 156.942C380.624 166.219 383.192 174.043 383.444 181.965C383.699 189.967 381.58 197.576 377.353 206.433C373.168 215.2 366.752 225.515 358.146 238.92L352.04 248.433L349.647 237.385C344.369 213.008 337.621 202.583 329.174 194.011C324.692 189.462 319.906 185.587 313.966 180.198C308.829 175.538 303.196 170.051 297.064 162.72C271.43 175.933 249.502 181.402 225.756 178.518C202.255 175.662 177.493 164.674 146.048 146.151C136.298 164.258 127.524 173.866 119.742 184.078C111.492 194.906 103.788 207.056 95.9385 232.627L93.1123 241.833L87.6309 233.916C58.9933 192.558 55.4793 154.031 66.5859 126.422C77.1247 100.224 100.823 84.2582 127.022 86.3838C132.696 69.14 146.339 58.381 163.304 51.4785C181.417 44.1086 203.962 40.8438 226.376 38.6914C249.114 36.5079 271.461 35.4766 290.487 32.7012C299.924 31.3245 308.238 29.5534 315.052 27.0996C321.896 24.6349 326.868 21.6079 330.009 17.9492L336.072 10.8848L338.113 19.9678Z" fill="#FCB052" stroke="white" stroke-width="9.34507"/>
</svg>
