<svg width="780" height="672" viewBox="0 0 780 672" fill="none" xmlns="http://www.w3.org/2000/svg">
<rect x="17.5" y="114.5" width="745" height="540" rx="62.5" fill="white" stroke="#FF6C6E" stroke-width="35"/>
<path d="M0 177C0 132.817 35.8172 97 80 97H700C744.183 97 780 132.817 780 177V262H0V177Z" fill="#FF6C6E"/>
<rect x="155" y="10" width="100" height="170" rx="40" fill="#FFFDFD" stroke="#FF6C6E" stroke-width="20"/>
<rect x="525" y="10" width="100" height="170" rx="40" fill="#FFFDFD" stroke="#FF6C6E" stroke-width="20"/>
<path d="M278.004 396.133V383.633H278.004L278.004 396.133ZM390.002 450.896L383.096 461.315L390.002 465.893L396.908 461.316L390.002 450.896ZM501.996 396.136V383.636V396.136ZM559 453.14H571.5V453.14L559 453.14ZM501.996 510.144V522.644V510.144ZM389.997 455.38L396.903 444.961L389.997 440.383L383.091 444.961L389.997 455.38ZM278.004 510.141L278.004 522.641H278.004V510.141ZM221 453.137L208.5 453.137V453.137H221ZM278.004 396.133V408.633C282.34 408.633 289.887 410.553 300.237 414.779C310.177 418.837 321.356 424.446 332.417 430.516C354.514 442.643 375.248 456.114 383.096 461.315L390.002 450.896L396.908 440.477C388.838 435.128 367.436 421.217 344.445 408.6C332.962 402.298 320.858 396.194 309.687 391.633C298.925 387.239 287.531 383.633 278.004 383.633V396.133ZM390.002 450.896L396.908 461.316C404.759 456.112 425.494 442.641 447.588 430.516C458.649 424.446 469.826 418.838 479.765 414.78C490.114 410.555 497.66 408.636 501.996 408.636V396.136V383.636C492.47 383.636 481.077 387.242 470.316 391.635C459.146 396.195 447.043 402.298 435.561 408.599C412.571 421.216 391.17 435.126 383.096 440.477L390.002 450.896ZM501.996 396.136V408.636C526.575 408.636 546.5 428.561 546.5 453.14L559 453.14L571.5 453.14C571.5 414.754 540.382 383.636 501.996 383.636V396.136ZM559 453.14H546.5C546.5 477.718 526.575 497.644 501.996 497.644V510.144V522.644C540.382 522.644 571.5 491.526 571.5 453.14H559ZM501.996 510.144V497.644C497.66 497.644 490.113 495.724 479.762 491.498C469.822 487.439 458.643 481.83 447.581 475.76C425.485 463.633 404.75 450.162 396.903 444.961L389.997 455.38L383.091 465.799C391.16 471.148 412.562 485.058 435.554 497.676C447.037 503.978 459.141 510.082 470.312 514.643C481.074 519.037 492.469 522.644 501.996 522.644V510.144ZM389.997 455.38L383.091 444.961C375.239 450.165 354.505 463.636 332.411 475.761C321.351 481.83 310.173 487.438 300.234 491.496C289.885 495.721 282.34 497.641 278.004 497.641V510.141V522.641C287.53 522.641 298.923 519.035 309.684 514.641C320.854 510.081 332.956 503.978 344.438 497.677C367.428 485.061 388.829 471.151 396.903 465.799L389.997 455.38ZM278.004 510.141L278.004 497.641C253.425 497.641 233.5 477.716 233.5 453.137H221H208.5C208.5 491.523 239.618 522.641 278.004 522.641L278.004 510.141ZM221 453.137L233.5 453.137C233.5 428.558 253.425 408.633 278.004 408.633L278.004 396.133L278.004 383.633C239.618 383.633 208.5 414.751 208.5 453.137L221 453.137Z" fill="black"/>
</svg>
