
<svg width="780" height="672" viewBox="0 0 780 672" fill="none" xmlns="http://www.w3.org/2000/svg">
<rect x="17.5" y="114.5" width="745" height="540" rx="62.5" fill="white" stroke="#FF6C6E" stroke-width="35"/>
<path d="M0 177C0 132.817 35.8172 97 80 97H700C744.183 97 780 132.817 780 177V262H0V177Z" fill="#FF6C6E"/>
<rect x="155" y="10" width="100" height="170" rx="40" fill="#FFFDFD" stroke="#FF6C6E" stroke-width="20"/>
<rect x="525" y="10" width="100" height="170" rx="40" fill="#FFFDFD" stroke="#FF6C6E" stroke-width="20"/>
<path d="M280 431.5C273.096 431.5 267.5 437.096 267.5 444C267.5 450.904 273.096 456.5 280 456.5V431.5ZM508.839 452.839C513.72 447.957 513.72 440.043 508.839 435.161L429.289 355.612C424.408 350.73 416.493 350.73 411.612 355.612C406.73 360.493 406.73 368.408 411.612 373.289L482.322 444L411.612 514.711C406.73 519.592 406.73 527.507 411.612 532.388C416.493 537.27 424.408 537.27 429.289 532.388L508.839 452.839ZM280 444V456.5L500 456.5V444V431.5L280 431.5V444Z" fill="black"/>
</svg>
