<svg width="780" height="672" viewBox="0 0 780 672" fill="none" xmlns="http://www.w3.org/2000/svg">
<rect x="17.5" y="114.5" width="745" height="540" rx="62.5" fill="white" stroke="#FF6C6E" stroke-width="35"/>
<path d="M0 177C0 132.817 35.8172 97 80 97H700C744.183 97 780 132.817 780 177V262H0V177Z" fill="#FF6C6E"/>
<rect x="155" y="10" width="100" height="170" rx="40" fill="#FFFDFD" stroke="#FF6C6E" stroke-width="20"/>
<rect x="525" y="10" width="100" height="170" rx="40" fill="#FFFDFD" stroke="#FF6C6E" stroke-width="20"/>
<path d="M445.697 346V358.5H445.697L445.697 346ZM460.42 371.5L471.245 377.75L471.245 377.75L460.42 371.5ZM411.634 456L400.809 449.75L397.2 456L400.809 462.25L411.634 456ZM460.42 540.5L471.245 534.25L471.245 534.25L460.42 540.5ZM318.58 540.5L329.406 546.75L329.406 546.75L318.58 540.5ZM367.365 456L378.191 462.25L381.799 456L378.191 449.75L367.365 456ZM318.58 371.5L329.406 365.25L329.406 365.25L318.58 371.5ZM333.303 346V333.5H333.303L333.303 346ZM445.697 346L445.697 358.5C449.162 358.5 451.327 362.25 449.595 365.25L460.42 371.5L471.245 377.75C482.6 358.083 468.406 333.5 445.697 333.5V346ZM460.42 371.5L449.595 365.25L400.809 449.75L411.634 456L422.459 462.25L471.245 377.75L460.42 371.5ZM411.634 456L400.809 462.25L449.595 546.75L460.42 540.5L471.245 534.25L422.459 449.75L411.634 456ZM460.42 540.5L449.595 546.75C451.327 549.75 449.162 553.5 445.697 553.5V566V578.5C468.406 578.5 482.6 553.917 471.245 534.25L460.42 540.5ZM445.697 566V553.5H333.303V566V578.5H445.697V566ZM333.303 566V553.5C329.839 553.5 327.674 549.75 329.406 546.75L318.58 540.5L307.755 534.25C296.4 553.917 310.594 578.5 333.303 578.5V566ZM318.58 540.5L329.406 546.75L378.191 462.25L367.365 456L356.54 449.75L307.755 534.25L318.58 540.5ZM367.365 456L378.191 449.75L329.406 365.25L318.58 371.5L307.755 377.75L356.54 462.25L367.365 456ZM318.58 371.5L329.406 365.25C327.674 362.25 329.839 358.5 333.303 358.5V346L333.303 333.5C310.594 333.5 296.4 358.083 307.755 377.75L318.58 371.5ZM333.303 346V358.5H445.697V346V333.5H333.303V346Z" fill="black"/>
</svg>
