<svg width="81" height="74" viewBox="0 0 81 74" fill="none" xmlns="http://www.w3.org/2000/svg">
<path d="M76 42C78.7614 42 81 39.7614 81 37C81 34.2386 78.7614 32 76 32V42ZM1.46446 33.4645C-0.488152 35.4171 -0.488152 38.5829 1.46446 40.5355L33.2843 72.3553C35.2369 74.308 38.4027 74.308 40.3553 72.3553C42.308 70.4027 42.308 67.2369 40.3553 65.2843L12.0711 37L40.3553 8.71573C42.308 6.76311 42.308 3.59728 40.3553 1.64466C38.4027 -0.307961 35.2369 -0.307961 33.2843 1.64466L1.46446 33.4645ZM76 37V32L5 32V37V42L76 42V37Z" fill="black"/>
</svg>
