<svg width="79" height="59" viewBox="0 0 79 59" fill="none" xmlns="http://www.w3.org/2000/svg">
<path d="M4.62043 1.44709C3.76278 0.552154 2.34203 0.521926 1.44709 1.37957C0.552154 2.23722 0.521926 3.65797 1.37957 4.55291L4.62043 1.44709ZM32.4978 33.7803L30.8773 35.3332L33.1828 37.7389L34.5458 34.6984L32.4978 33.7803ZM40.8341 15.1839L42.5638 13.7537L40.2631 10.9709L38.786 14.2658L40.8341 15.1839ZM74.2881 58.138C75.5221 58.255 76.6174 57.3495 76.7344 56.1155L78.6413 36.0061C78.7583 34.7721 77.8528 33.6769 76.6188 33.5599C75.3848 33.4429 74.2896 34.3484 74.1726 35.5824L72.4775 53.4573L54.6025 51.7623C53.3685 51.6453 52.2733 52.5508 52.1563 53.7848C52.0393 55.0188 52.9448 56.114 54.1788 56.231L74.2881 58.138ZM3 3L1.37957 4.55291L30.8773 35.3332L32.4978 33.7803L34.1182 32.2274L4.62043 1.44709L3 3ZM32.4978 33.7803L34.5458 34.6984L42.8821 16.1019L40.8341 15.1839L38.786 14.2658L30.4497 32.8622L32.4978 33.7803ZM40.8341 15.1839L39.1043 16.614L72.7702 57.3337L74.5 55.9036L76.2298 54.4735L42.5638 13.7537L40.8341 15.1839Z" fill="#186AAB"/>
</svg>
