<svg width="79" height="59" viewBox="0 0 79 59" fill="none" xmlns="http://www.w3.org/2000/svg">
<path d="M31.8303 25.3727L30.1916 23.8023L32.5231 21.3695L33.9014 24.4443L31.8303 25.3727ZM40.2606 44.1788L42.0099 45.625L39.6832 48.4392L38.1895 45.1072L40.2606 44.1788ZM74.0918 0.74044C75.3397 0.622105 76.4473 1.53781 76.5656 2.78573L78.494 23.1218C78.6124 24.3697 77.6967 25.4773 76.4487 25.5956C75.2008 25.7139 74.0933 24.7982 73.9749 23.5503L72.2608 5.47383L54.1843 7.18798C52.9364 7.30632 51.8288 6.39061 51.7105 5.14269C51.5921 3.89477 52.5078 2.7872 53.7557 2.66886L74.0918 0.74044ZM2 56.5L0.361306 54.9296L30.1916 23.8023L31.8303 25.3727L33.469 26.9431L3.63869 58.0704L2 56.5ZM31.8303 25.3727L33.9014 24.4443L42.3317 43.2504L40.2606 44.1788L38.1895 45.1072L29.7592 26.3012L31.8303 25.3727ZM40.2606 44.1788L38.5113 42.7325L72.5568 1.55376L74.3061 3L76.0553 4.44624L42.0099 45.625L40.2606 44.1788Z" fill="#AD2D2D"/>
</svg>
