<svg width="502" height="816" viewBox="0 0 502 816" fill="none" xmlns="http://www.w3.org/2000/svg">
<path d="M191.078 17.0059C241.57 -1.01357 293.529 2.26046 324.345 35.8672C340.972 39.3468 355.404 45.931 368.19 57.0176C381.404 68.4743 392.559 84.476 402.657 106.074L403.144 107.132C413.499 130.072 433.559 198.645 445.279 264.792C451.242 298.447 455.124 331.882 454.396 358.664C454.033 372.037 452.515 384.068 449.358 393.747C446.225 403.355 441.196 411.469 433.215 415.665C426.458 419.217 416.25 422.396 403.919 425.23C391.468 428.092 376.434 430.693 359.761 432.946C326.409 437.454 286.232 440.609 246.54 441.646C206.874 442.681 167.506 441.606 135.82 437.594C119.99 435.589 105.892 432.829 94.5645 429.154C83.8023 425.663 74.6745 421.08 69.2676 414.774L68.7559 414.158C50.6569 391.669 44.4471 362.016 45.6572 330.438C46.8587 299.086 55.3846 265.254 67.5508 233.276C72.3713 172.539 79.7957 126.931 97.6025 92.373C115.721 57.2115 144.276 34.0269 189.868 17.4414L191.078 17.0059Z" fill="#FCB052" stroke="white" stroke-width="11.67"/>
<mask id="path-2-outside-1_2098_376" maskUnits="userSpaceOnUse" x="-1" y="398.766" width="503" height="417" fill="black">
<rect fill="white" x="-1" y="398.766" width="503" height="417"/>
<path d="M250.968 408.766C315.184 408.766 376.769 450.573 422.177 524.991C461.798 589.926 486.269 675.049 491.863 765.608C493.225 787.657 475.185 805.584 453.094 805.584H48.8408C26.7494 805.584 8.71 787.657 10.0719 765.608C15.6651 675.049 40.1365 589.926 79.7578 524.991C125.165 450.573 186.752 408.766 250.968 408.766Z"/>
</mask>
<path d="M250.968 408.766C315.184 408.766 376.769 450.573 422.177 524.991C461.798 589.926 486.269 675.049 491.863 765.608C493.225 787.657 475.185 805.584 453.094 805.584H48.8408C26.7494 805.584 8.71 787.657 10.0719 765.608C15.6651 675.049 40.1365 589.926 79.7578 524.991C125.165 450.573 186.752 408.766 250.968 408.766Z" fill="#FFC786"/>
<path d="M250.968 408.766L250.968 398.766H250.968V408.766ZM422.177 524.991L430.713 519.783V519.783L422.177 524.991ZM79.7578 524.991L71.2214 519.783L71.2214 519.783L79.7578 524.991ZM10.0719 765.608L0.0908737 764.991L10.0719 765.608ZM491.863 765.608L481.882 766.224L491.863 765.608ZM250.968 408.766L250.968 418.766C310.499 418.766 369.322 457.567 413.64 530.2L422.177 524.991L430.713 519.783C384.217 443.58 319.868 398.766 250.968 398.766L250.968 408.766ZM422.177 524.991L413.64 530.2C452.254 593.483 476.368 676.955 481.882 766.224L491.863 765.608L501.844 764.991C496.171 673.143 471.342 586.369 430.713 519.783L422.177 524.991ZM453.094 805.584V795.584H48.8408V805.584V815.584H453.094V805.584ZM10.0719 765.608L20.0528 766.224C25.5664 676.955 49.6806 593.483 88.2942 530.2L79.7578 524.991L71.2214 519.783C30.5924 586.369 5.76381 673.143 0.0908737 764.991L10.0719 765.608ZM79.7578 524.991L88.2942 530.2C132.613 457.567 191.437 418.766 250.968 418.766V408.766V398.766C182.067 398.766 117.718 443.58 71.2214 519.783L79.7578 524.991ZM48.8408 805.584V795.584C32.096 795.584 19.0717 782.11 20.0528 766.224L10.0719 765.608L0.0908737 764.991C-1.6517 793.205 21.4029 815.584 48.8408 815.584V805.584ZM491.863 765.608L481.882 766.224C482.863 782.11 469.839 795.584 453.094 795.584V805.584V815.584C480.532 815.584 503.586 793.205 501.844 764.991L491.863 765.608Z" fill="white" mask="url(#path-2-outside-1_2098_376)"/>
<circle cx="250.968" cy="211.692" r="149.692" fill="#FFC786" stroke="white" stroke-width="10"/>
<path d="M299.793 116.105C242.749 185.475 129 207.775 83.6793 198.719C73.6676 162.561 124.493 28.191 239.126 24.9084C363.597 21.3441 422.93 150.247 408.876 198.719C341.757 194.924 320.299 168.904 299.793 116.105Z" fill="#FCB052"/>
<path d="M98.5 201.053C168.907 211.677 276.856 145.962 299.794 118.344C318.712 168.678 346.999 191.249 404.285 201.053" stroke="white" stroke-width="10" stroke-linecap="round"/>
<path d="M146 450C146 450 204.292 505.5 250.5 505.5C296.708 505.5 355 450 355 450" stroke="white" stroke-width="30" stroke-linecap="round"/>
<path d="M245.235 501.848C247.929 497.68 253.99 497.62 256.769 501.728L256.9 501.93L257.667 503.158C259.581 506.251 262.315 510.86 264.698 515.622C266.059 518.341 267.348 521.193 268.308 523.896C269.234 526.505 270 529.375 270 532C270 542.493 261.493 551 251 551C240.507 551 232 542.493 232 532C232 529.539 232.819 526.747 233.728 524.281C234.688 521.673 235.978 518.839 237.339 516.098C240.064 510.607 243.241 505.159 245.107 502.053L245.235 501.848Z" fill="#DE5A8D" stroke="white" stroke-width="10"/>
<path d="M307.247 480.811C309.92 476.683 315.963 476.56 318.752 480.688L318.885 480.891L319.464 481.82C320.885 484.12 322.761 487.306 324.371 490.553C325.29 492.406 326.164 494.362 326.817 496.238C327.442 498.032 328 500.125 328 502.137C328 510.41 321.219 517 313 517C304.781 517 298 510.41 298 502.137C298 500.206 298.609 498.148 299.216 496.476C299.87 494.674 300.743 492.741 301.66 490.884C303.498 487.161 305.68 483.407 307.12 481.014L307.247 480.811Z" fill="#DE5A8D" stroke="white" stroke-width="10"/>
<path d="M183.247 480.811C185.92 476.683 191.963 476.56 194.752 480.688L194.885 480.891L195.464 481.82C196.885 484.12 198.761 487.306 200.371 490.553C201.29 492.406 202.164 494.362 202.817 496.238C203.442 498.032 204 500.125 204 502.137C204 510.41 197.219 517 189 517C180.781 517 174 510.41 174 502.137C174 500.206 174.609 498.148 175.216 496.476C175.87 494.674 176.743 492.741 177.66 490.884C179.498 487.161 181.68 483.407 183.12 481.014L183.247 480.811Z" fill="#DE5A8D" stroke="white" stroke-width="10"/>
<path d="M146 450C146 450 204.292 505.5 250.5 505.5C296.708 505.5 355 450 355 450" stroke="#DE5A8D" stroke-width="10" stroke-linecap="round"/>
</svg>
