<svg width="470" height="697" viewBox="0 0 470 697" fill="none" xmlns="http://www.w3.org/2000/svg">
<path d="M201.342 13.9229C244.281 -1.10496 288.306 1.88392 314.501 30.4512C328.749 33.4328 341.116 39.0752 352.072 48.5752C363.395 58.3925 372.954 72.1047 381.607 90.6123L382.021 91.5098C390.707 110.701 400.248 150.917 406.161 190.164C409.18 210.199 411.287 230.205 411.85 247.331C412.404 264.201 411.497 279.041 408.003 288.263L408.004 288.264C399.923 309.821 392.994 323.487 384.611 333.239C376.115 343.124 366.432 348.63 353.773 354.471L344.253 358.864L346.832 348.701C347.364 346.605 347.737 344.916 347.972 343.482C343.712 347.454 339.668 350.572 335.402 353.141C328.769 357.135 321.853 359.655 313.285 362.15L313.018 362.229L312.743 362.276C287.821 366.606 268.13 368.754 248.484 367.761C228.98 366.775 209.76 362.707 185.679 354.893C151.106 353.257 126.43 349.454 107.787 340.444C88.6942 331.217 76.4218 316.789 66.0859 295.21L65.9268 294.877L65.8174 294.523C62.3889 283.409 63.995 271.219 69.082 256.215C74.1038 241.403 82.7931 223.097 94.4736 199.369C98.6049 147.444 104.971 108.438 120.206 78.8721C135.732 48.7421 160.201 28.8752 199.269 14.6631L201.342 13.9229Z" fill="#FCB052" stroke="white" stroke-width="10"/>
<path d="M247.743 30.1719C320.582 30.1719 379.63 89.2191 379.63 162.058C379.63 164.45 379.566 166.827 379.44 169.187L379.383 170.196C375.182 239.242 317.849 293.944 247.743 293.944L246.103 293.935C177.291 293.095 121.162 239.556 116.212 171.812L116.104 170.196C115.941 167.505 115.857 164.791 115.857 162.058L115.868 160.354C116.774 88.8677 174.553 31.0881 246.039 30.1826L247.743 30.1719Z" fill="#FFC786" stroke="white" stroke-width="10"/>
<path d="M171.894 116.403C156.055 146.8 141.37 157.72 108.275 170C90.9688 136.865 143.249 23.8747 241.477 21.0619C348.136 18.0076 407.579 128.87 386.936 170C331.685 138.953 318.371 113.41 298.855 65.8979C266.332 100.547 250.579 124.023 204.527 136.502C188.107 123.724 181.87 120.549 171.894 116.403Z" fill="#FCB052"/>
<path d="M113 172C145.067 160.086 159.295 149.492 174.642 120C184.308 124.023 190.351 127.103 206.26 139.5C250.881 127.393 266.144 104.616 297.657 71C316.567 117.096 329.466 141.878 383 172" stroke="white" stroke-width="10" stroke-linecap="round"/>
<path d="M0 489.738C0 461.393 22.9785 438.414 51.3239 438.414H110.612V684.415H37.1657C16.6397 684.415 0 667.775 0 647.249V489.738Z" fill="#DE5A8D"/>
<mask id="path-6-outside-1_2091_261" maskUnits="userSpaceOnUse" x="25.5107" y="327.43" width="445" height="369" fill="black">
<rect fill="white" x="25.5107" y="327.43" width="445" height="369"/>
<path d="M247.742 336.43C304.567 336.43 359.063 373.425 399.244 439.277C434.305 496.738 455.96 572.062 460.91 652.197C462.115 671.709 446.152 687.572 426.603 687.572H68.8813C49.3327 687.572 33.3697 671.709 34.5748 652.197C39.5242 572.063 61.1787 496.738 96.2393 439.277C136.42 373.425 190.918 336.43 247.742 336.43Z"/>
</mask>
<path d="M247.742 336.43C304.567 336.43 359.063 373.425 399.244 439.277C434.305 496.738 455.96 572.062 460.91 652.197C462.115 671.709 446.152 687.572 426.603 687.572H68.8813C49.3327 687.572 33.3697 671.709 34.5748 652.197C39.5242 572.063 61.1787 496.738 96.2393 439.277C136.42 373.425 190.918 336.43 247.742 336.43Z" fill="#FFC786"/>
<path d="M247.742 336.43L247.742 327.581H247.742V336.43ZM399.244 439.277L406.798 434.668L399.244 439.277ZM96.2393 439.277L88.6855 434.668L88.6855 434.668L96.2393 439.277ZM460.91 652.197L452.078 652.743L460.91 652.197ZM247.742 336.43L247.742 345.279C300.421 345.279 352.473 379.614 391.69 443.886L399.244 439.277L406.798 434.668C365.653 367.237 308.712 327.581 247.742 327.581L247.742 336.43ZM399.244 439.277L391.69 443.886C425.859 499.886 447.198 573.749 452.078 652.743L460.91 652.197L469.742 651.652C464.722 570.376 442.75 493.59 406.798 434.668L399.244 439.277ZM426.603 687.572V678.723H68.8813V687.572V696.421H426.603V687.572ZM34.5748 652.197L43.4069 652.743C48.2859 573.749 69.6243 499.886 103.793 443.886L96.2393 439.277L88.6855 434.668C52.7332 493.59 30.7626 570.376 25.7427 651.652L34.5748 652.197ZM96.2393 439.277L103.793 443.886C143.01 379.614 195.063 345.279 247.742 345.279V336.43V327.581C186.772 327.581 129.83 367.237 88.6855 434.668L96.2393 439.277ZM68.8813 687.572V678.723C54.0639 678.723 42.5387 666.8 43.4069 652.743L34.5748 652.197L25.7427 651.652C24.2007 676.618 44.6015 696.421 68.8813 696.421V687.572ZM460.91 652.197L452.078 652.743C452.946 666.8 441.421 678.723 426.603 678.723V687.572V696.421C450.883 696.421 471.284 676.618 469.742 651.652L460.91 652.197Z" fill="white" mask="url(#path-6-outside-1_2091_261)"/>
<path d="M142.495 377.054C144.279 376.028 146.088 376.473 147.129 377.062C148.009 377.559 148.558 378.232 148.81 378.563C149.372 379.303 149.826 380.21 150.184 381.005C150.944 382.696 151.809 385.125 152.742 388.096C154.626 394.092 156.957 402.839 159.461 413.615C164.474 435.187 170.236 465.132 174.533 497.947C178.829 530.751 181.673 566.525 180.813 599.722C179.956 632.821 175.41 663.804 164.612 686.747L163.416 689.288H93.3584L95.3652 683.429C110.463 639.361 110.546 578.421 106.698 528.02C104.782 502.913 101.906 480.596 99.5098 464.556C98.3118 456.538 97.234 450.093 96.457 445.659C96.0686 443.443 95.7555 441.729 95.54 440.572C95.4324 439.994 95.349 439.555 95.293 439.263C95.265 439.116 95.2435 439.006 95.2295 438.934C95.2225 438.898 95.2172 438.871 95.2139 438.854C95.2122 438.845 95.2107 438.839 95.21 438.835L95.209 438.83L94.832 436.908L96.001 435.337L99.5508 437.978C96.0177 435.35 96.0007 435.336 96.001 435.336C96.0013 435.336 96.0023 435.335 96.0029 435.334C96.0042 435.332 96.0054 435.329 96.0078 435.326C96.0128 435.32 96.0206 435.31 96.0303 435.297C96.0498 435.271 96.079 435.232 96.1172 435.181C96.1937 435.078 96.3072 434.925 96.4551 434.727C96.7509 434.33 97.1853 433.748 97.7393 433.007C98.8475 431.524 100.435 429.402 102.356 426.847C106.199 421.737 111.378 414.888 116.716 407.937C122.049 400.991 127.562 393.918 132.067 388.371C134.317 385.602 136.343 383.177 137.985 381.328C138.804 380.406 139.56 379.591 140.219 378.934C140.8 378.354 141.553 377.643 142.322 377.158L142.495 377.054Z" fill="#DE5A8D" stroke="white" stroke-width="8.84896"/>
</svg>
