<svg width="502" height="789" viewBox="0 0 502 789" fill="none" xmlns="http://www.w3.org/2000/svg">
<path d="M195.003 15.4189C224.186 6.5882 250.729 3.24578 272.594 5.87207C293.993 8.44249 311.353 16.8184 321.838 31.8066C338.317 30.8738 358.008 36.5367 374.772 47.7852C392.693 59.8095 407.753 78.5463 411.938 103.288L412.568 107.055C418.842 144.991 419.992 165.631 421.022 198.08C446.957 252.726 455.279 285.774 452.484 310.304C449.678 334.932 435.657 350.221 420.475 368.654C415.732 381.859 408.292 391.584 398.283 398.555C388.153 405.611 375.702 409.632 361.475 411.92C333.302 416.45 296.258 414.39 253.093 413.957C206.019 414.615 169.246 416.694 141.457 412.106C127.393 409.785 115.228 405.713 104.911 398.666C95.0165 391.908 87.1059 382.607 80.8145 370.101C62.7433 362.571 54.5548 344.407 51.9756 322.886C49.2953 300.521 52.4127 273.001 57.999 245.459C69.1921 190.275 90.6723 133.301 98.1162 113.644C99.9427 108.82 101.549 104.106 103.128 99.4385C104.698 94.7964 106.251 90.1722 107.933 85.666C111.305 76.6276 115.281 67.8171 121.347 59.4473C133.588 42.5555 153.695 28.3293 192.17 16.29L195.003 15.4189Z" fill="#FCB052" stroke="white" stroke-width="10"/>
<mask id="path-2-outside-1_2091_253" maskUnits="userSpaceOnUse" x="-1" y="371.766" width="503" height="417" fill="black">
<rect fill="white" x="-1" y="371.766" width="503" height="417"/>
<path d="M250.968 381.766C315.184 381.766 376.769 423.573 422.177 497.991C461.798 562.926 486.269 648.049 491.863 738.608C493.225 760.657 475.185 778.584 453.094 778.584H48.8408C26.7494 778.584 8.71 760.657 10.0719 738.608C15.6651 648.049 40.1365 562.926 79.7578 497.991C125.165 423.573 186.752 381.766 250.968 381.766Z"/>
</mask>
<path d="M250.968 381.766C315.184 381.766 376.769 423.573 422.177 497.991C461.798 562.926 486.269 648.049 491.863 738.608C493.225 760.657 475.185 778.584 453.094 778.584H48.8408C26.7494 778.584 8.71 760.657 10.0719 738.608C15.6651 648.049 40.1365 562.926 79.7578 497.991C125.165 423.573 186.752 381.766 250.968 381.766Z" fill="#FFC786"/>
<path d="M250.968 381.766L250.968 371.766H250.968V381.766ZM422.177 497.991L430.713 492.783V492.783L422.177 497.991ZM79.7578 497.991L71.2214 492.783L71.2214 492.783L79.7578 497.991ZM10.0719 738.608L0.0908737 737.991L10.0719 738.608ZM491.863 738.608L481.882 739.224L491.863 738.608ZM250.968 381.766L250.968 391.766C310.499 391.766 369.322 430.567 413.64 503.2L422.177 497.991L430.713 492.783C384.217 416.58 319.868 371.766 250.968 371.766L250.968 381.766ZM422.177 497.991L413.64 503.2C452.254 566.483 476.368 649.955 481.882 739.224L491.863 738.608L501.844 737.991C496.171 646.143 471.342 559.369 430.713 492.783L422.177 497.991ZM453.094 778.584V768.584H48.8408V778.584V788.584H453.094V778.584ZM10.0719 738.608L20.0528 739.224C25.5664 649.955 49.6806 566.483 88.2942 503.2L79.7578 497.991L71.2214 492.783C30.5924 559.369 5.76381 646.143 0.0908737 737.991L10.0719 738.608ZM79.7578 497.991L88.2942 503.2C132.613 430.567 191.437 391.766 250.968 391.766V381.766V371.766C182.067 371.766 117.718 416.58 71.2214 492.783L79.7578 497.991ZM48.8408 778.584V768.584C32.096 768.584 19.0717 755.11 20.0528 739.224L10.0719 738.608L0.0908737 737.991C-1.6517 766.205 21.4029 788.584 48.8408 788.584V778.584ZM491.863 738.608L481.882 739.224C482.863 755.11 469.839 768.584 453.094 768.584V778.584V788.584C480.532 788.584 503.586 766.205 501.844 737.991L491.863 738.608Z" fill="white" mask="url(#path-2-outside-1_2091_253)"/>
<circle cx="250.967" cy="184.692" r="149.692" fill="#FFC786" stroke="white" stroke-width="10"/>
<path d="M236 189.002C236 189.002 245.141 183.875 251.5 184.002C257.489 184.122 266 189.002 266 189.002" stroke="white" stroke-width="25"/>
<path d="M363 189.5L403 172.5" stroke="white" stroke-width="25"/>
<path d="M139 189.5L99 172.5" stroke="white" stroke-width="25"/>
<path d="M188 152C201.921 152 215.287 153.45 225.268 158.881C230.345 161.644 234.594 165.462 237.545 170.634C240.487 175.791 242 182.052 242 189.5C242 196.946 240.488 203.161 237.526 208.242C234.555 213.341 230.278 217.031 225.19 219.659C215.215 224.811 201.855 226 188 226C174.145 226 160.785 224.811 150.81 219.659C145.722 217.031 141.445 213.341 138.474 208.242C135.512 203.161 134 196.946 134 189.5C134 182.052 135.513 175.791 138.455 170.634C141.406 165.462 145.655 161.644 150.732 158.881C160.713 153.45 174.079 152 188 152Z" stroke="white" stroke-width="8"/>
<path d="M314 161C327.665 161 339.083 162.497 346.966 166.786C350.798 168.871 353.723 171.58 355.728 175.094C357.743 178.626 359 183.277 359 189.5C359 195.725 357.742 200.293 355.751 203.71C353.773 207.104 350.88 209.69 347.061 211.663C339.171 215.738 327.747 217 314 217C300.253 217 288.829 215.738 280.939 211.663C277.12 209.69 274.227 207.104 272.249 203.71C270.258 200.293 269 195.725 269 189.5C269 183.277 270.257 178.626 272.272 175.094C274.277 171.58 277.202 168.871 281.034 166.786C288.917 162.497 300.335 161 314 161Z" fill="white" fill-opacity="0.4" stroke="black" stroke-width="10"/>
<path d="M188 161C201.665 161 213.083 162.497 220.966 166.786C224.798 168.871 227.723 171.58 229.728 175.094C231.743 178.626 233 183.277 233 189.5C233 195.725 231.742 200.293 229.751 203.71C227.773 207.104 224.88 209.69 221.061 211.663C213.171 215.738 201.747 217 188 217C174.253 217 162.829 215.738 154.939 211.663C151.12 209.69 148.227 207.104 146.249 203.71C144.258 200.293 143 195.725 143 189.5C143 183.277 144.257 178.626 146.272 175.094C148.277 171.58 151.202 168.871 155.034 166.786C162.917 162.497 174.335 161 188 161Z" fill="white" fill-opacity="0.4" stroke="black" stroke-width="10"/>
<path d="M314 152C327.921 152 341.287 153.45 351.268 158.881C356.345 161.644 360.594 165.462 363.545 170.634C366.487 175.791 368 182.052 368 189.5C368 196.946 366.488 203.161 363.526 208.242C360.555 213.341 356.278 217.031 351.19 219.659C341.215 224.811 327.855 226 314 226C300.145 226 286.785 224.811 276.81 219.659C271.722 217.031 267.445 213.341 264.474 208.242C261.512 203.161 260 196.946 260 189.5C260 182.052 261.513 175.791 264.455 170.634C267.406 165.462 271.655 161.644 276.732 158.881C286.713 153.45 300.079 152 314 152Z" stroke="white" stroke-width="8"/>
<path d="M236 189.002C236 189.002 245.141 183.875 251.5 184.002C257.489 184.122 266 189.002 266 189.002" stroke="black" stroke-width="10" stroke-linecap="round"/>
<path d="M363 189.5L403 172.5" stroke="black" stroke-width="10" stroke-linecap="round"/>
<path d="M139 189.5L99 172.5" stroke="black" stroke-width="10" stroke-linecap="round"/>
<path d="M410.431 196.883C354.008 183.922 331.928 158.539 301.347 114.269H250.5L249.367 115.284C179.963 177.469 157.713 197.405 93 196.883C82.9883 160.725 126.048 26.355 240.681 23.0725C365.152 19.5082 424.485 148.411 410.431 196.883Z" fill="#FCB052"/>
<path d="M100.055 199.217C168.223 194.225 189.219 167.997 250 116.508H301.348C332.737 158.423 354.683 177.552 405.839 199.217" stroke="white" stroke-width="10" stroke-linecap="round"/>
</svg>
