<svg width="502" height="776" viewBox="0 0 502 776" fill="none" xmlns="http://www.w3.org/2000/svg">
<path d="M194.003 15.4189C223.186 6.58809 249.729 3.24582 271.594 5.87207C292.993 8.44244 310.354 16.8182 320.839 31.8066C337.318 30.8739 357.008 36.5369 373.772 47.7852C391.693 59.8095 406.754 78.5462 410.939 103.288L411.258 105.219C414.433 125.023 414.14 140.148 413.165 154.346C412.185 168.612 410.583 181.39 410.965 197.341C411.293 197.811 411.699 198.4 412.166 199.102C413.459 201.042 415.24 203.844 417.227 207.329C421.189 214.281 426.025 224.054 429.415 235.237C436.123 257.37 437.394 286.106 413.46 308.645L412.89 309.176C403.455 317.877 391.23 321.254 378.779 321.728C366.34 322.201 353.255 319.801 341.494 316.507C329.697 313.203 319.001 308.932 311.271 305.501C307.4 303.782 304.257 302.267 302.072 301.176C301.106 300.693 300.326 300.293 299.753 299.995C248.62 299.632 185.608 277.05 141.5 243.148C119.239 226.039 101.412 205.756 92.5303 183.557C83.5665 161.152 83.8228 137.005 97.4414 112.951L98.0098 111.938C103.821 101.515 107.678 92.1257 111.352 83.3037C115.109 74.2783 118.747 65.6513 124.109 57.6523C135.091 41.27 152.724 28.3202 191.171 16.29L194.003 15.4189Z" fill="#DDDDDD" stroke="white" stroke-width="10"/>
<mask id="path-2-outside-1_2091_228" maskUnits="userSpaceOnUse" x="-0.999023" y="358.766" width="503" height="417" fill="black">
<rect fill="white" x="-0.999023" y="358.766" width="503" height="417"/>
<path d="M250.969 368.766C315.185 368.766 376.77 410.573 422.178 484.991C461.799 549.926 486.27 635.049 491.864 725.608C493.226 747.657 475.186 765.584 453.095 765.584H48.8418C26.7504 765.584 8.71097 747.657 10.0728 725.608C15.6661 635.049 40.1375 549.926 79.7588 484.991C125.166 410.573 186.753 368.766 250.969 368.766Z"/>
</mask>
<path d="M250.969 368.766C315.185 368.766 376.77 410.573 422.178 484.991C461.799 549.926 486.27 635.049 491.864 725.608C493.226 747.657 475.186 765.584 453.095 765.584H48.8418C26.7504 765.584 8.71097 747.657 10.0728 725.608C15.6661 635.049 40.1375 549.926 79.7588 484.991C125.166 410.573 186.753 368.766 250.969 368.766Z" fill="#FFC786"/>
<path d="M250.969 368.766L250.969 358.766H250.969V368.766ZM422.178 484.991L430.714 479.783V479.783L422.178 484.991ZM79.7588 484.991L71.2224 479.783L71.2224 479.783L79.7588 484.991ZM10.0728 725.608L0.0918503 724.991L10.0728 725.608ZM491.864 725.608L481.883 726.224L491.864 725.608ZM250.969 368.766L250.969 378.766C310.5 378.766 369.323 417.567 413.641 490.2L422.178 484.991L430.714 479.783C384.218 403.58 319.869 358.766 250.969 358.766L250.969 368.766ZM422.178 484.991L413.641 490.2C452.255 553.483 476.369 636.955 481.883 726.224L491.864 725.608L501.845 724.991C496.172 633.143 471.343 546.369 430.714 479.783L422.178 484.991ZM453.095 765.584V755.584H48.8418V765.584V775.584H453.095V765.584ZM10.0728 725.608L20.0538 726.224C25.5674 636.955 49.6816 553.483 88.2952 490.2L79.7588 484.991L71.2224 479.783C30.5934 546.369 5.76479 633.143 0.0918503 724.991L10.0728 725.608ZM79.7588 484.991L88.2952 490.2C132.614 417.567 191.438 378.766 250.969 378.766V368.766V358.766C182.068 358.766 117.719 403.58 71.2224 479.783L79.7588 484.991ZM48.8418 765.584V755.584C32.097 755.584 19.0727 742.11 20.0538 726.224L10.0728 725.608L0.0918503 724.991C-1.65072 753.205 21.4038 775.584 48.8418 775.584V765.584ZM491.864 725.608L481.883 726.224C482.864 742.11 469.84 755.584 453.095 755.584V765.584V775.584C480.533 775.584 503.587 753.205 501.845 724.991L491.864 725.608Z" fill="white" mask="url(#path-2-outside-1_2091_228)"/>
<circle cx="250.968" cy="184.692" r="149.692" fill="#FFC786" stroke="white" stroke-width="10"/>
<path d="M236 184.502C236 184.502 245.141 179.375 251.5 179.502C257.489 179.622 266 184.502 266 184.502" stroke="white" stroke-width="25"/>
<path d="M363 185L403 168" stroke="white" stroke-width="25"/>
<path d="M139 185L99 168" stroke="white" stroke-width="25"/>
<circle cx="188" cy="185" r="45" fill="white" fill-opacity="0.4" stroke="black" stroke-width="10"/>
<circle cx="188" cy="185" r="54" stroke="white" stroke-width="8"/>
<circle cx="314" cy="185" r="45" fill="white" fill-opacity="0.4" stroke="black" stroke-width="10"/>
<circle cx="314" cy="185" r="54" stroke="white" stroke-width="8"/>
<path d="M236 184.502C236 184.502 245.141 179.375 251.5 179.502C257.489 179.622 266 184.502 266 184.502" stroke="black" stroke-width="10" stroke-linecap="round"/>
<path d="M363 185L403 168" stroke="black" stroke-width="10" stroke-linecap="round"/>
<path d="M139 185L99 168" stroke="black" stroke-width="10" stroke-linecap="round"/>
<path d="M409.431 196.884C353.008 183.923 328.58 149.271 298 105.001H228.5C174.987 126.432 149.103 146.728 96.0003 196.884C79.9256 190.329 109.61 20.2714 239.681 23.0733C364.174 25.755 423.485 148.412 409.431 196.884Z" fill="#DDDDDD"/>
<path d="M99.0557 199.217C144.04 147.485 172.4 126.74 228.501 103H299.501C323.42 143.577 348.833 176.688 404.84 199.217" stroke="white" stroke-width="10" stroke-linecap="round"/>
</svg>
