<svg width="471" height="760" viewBox="0 0 471 760" fill="none" xmlns="http://www.w3.org/2000/svg">
<path d="M186.964 15.0898C231.728 -0.5764 277.623 2.53881 304.932 32.3203C319.785 35.4287 332.676 41.3112 344.099 51.2148C355.902 61.4493 365.867 75.7441 374.889 95.0381L375.319 95.9736C384.375 115.98 394.322 157.905 400.486 198.819C403.633 219.705 405.831 240.562 406.417 258.416C406.994 276.002 406.049 291.473 402.406 301.087L402.407 301.088C398.662 311.079 398.581 322.456 400.293 335.02C402.022 347.713 405.405 360.657 408.213 374.335C413.668 400.904 416.809 429.613 394.138 451.731C383.817 461.8 375.261 469.286 368.081 474.341C361.033 479.303 354.666 482.397 348.827 482.707C342.36 483.05 337.503 479.97 334.006 475.082C331.729 471.899 329.926 467.833 328.373 463.206C327.604 463.331 326.798 463.36 325.958 463.267C322.239 462.855 319.73 460.263 318.185 458.143C316.544 455.892 315.167 453.041 313.964 450.17C312.742 447.253 311.567 443.988 310.424 440.792C308.056 434.172 305.843 427.97 303.258 423.67C301.973 421.533 300.868 420.345 300.03 419.789C299.413 419.379 299.033 419.337 298.455 419.505L298.177 419.586L297.89 419.636C286.223 421.663 275.509 427.918 265.008 436.438C254.443 445.009 244.641 455.39 234.383 465.48C224.318 475.381 213.817 484.992 202.421 490.994C190.988 497.016 178.469 499.499 164.559 495.17C146.16 494.236 132.378 490.32 121.83 483.927C111.092 477.418 104.12 468.596 99.0303 458.7C94.0089 448.936 90.7387 437.941 87.5127 427.12C84.3418 416.485 81.1815 405.892 76.4336 395.733L75.9688 394.752L75.8027 394.404L75.6895 394.036C72.3773 383.299 68.0735 351.587 66.6992 315.649C65.3302 279.851 66.818 238.773 75.5166 208.881C79.8224 154.518 86.4513 113.71 102.379 82.7988C118.564 51.3885 144.074 30.6774 184.802 15.8613L186.964 15.0898Z" fill="#FCB052" stroke="white" stroke-width="10.4249"/>
<mask id="path-2-outside-1_2091_246" maskUnits="userSpaceOnUse" x="-1.00098" y="368.75" width="472" height="391" fill="black">
<rect fill="white" x="-1.00098" y="368.75" width="472" height="391"/>
<path d="M235.186 378.75C295.196 378.75 352.748 417.819 395.182 487.363C432.208 548.046 455.077 627.594 460.304 712.222C461.576 732.827 444.718 749.58 424.074 749.58H46.2963C25.6518 749.58 8.79376 732.827 10.0664 712.222C15.2934 627.594 38.162 548.046 75.1885 487.363C117.622 417.819 175.175 378.75 235.186 378.75Z"/>
</mask>
<path d="M235.186 378.75C295.196 378.75 352.748 417.819 395.182 487.363C432.208 548.046 455.077 627.594 460.304 712.222C461.576 732.827 444.718 749.58 424.074 749.58H46.2963C25.6518 749.58 8.79376 732.827 10.0664 712.222C15.2934 627.594 38.162 548.046 75.1885 487.363C117.622 417.819 175.175 378.75 235.186 378.75Z" fill="#FFC786"/>
<path d="M235.186 378.75L235.186 368.75H235.186V378.75ZM395.182 487.363L403.718 482.155H403.718L395.182 487.363ZM75.1885 487.363L66.6521 482.155L75.1885 487.363ZM235.186 378.75L235.186 388.75C290.511 388.75 345.301 424.813 386.645 492.572L395.182 487.363L403.718 482.155C360.195 410.826 299.881 368.75 235.186 368.75L235.186 378.75ZM395.182 487.363L386.645 492.572C422.664 551.603 445.175 629.5 450.323 712.838L460.304 712.222L470.285 711.605C464.978 625.688 441.752 544.489 403.718 482.155L395.182 487.363ZM424.074 749.58V739.58H46.2963V749.58V759.58H424.074V749.58ZM10.0664 712.222L20.0474 712.838C25.1947 629.5 47.7061 551.603 83.7249 492.572L75.1885 487.363L66.6521 482.155C28.6179 544.488 5.39203 625.688 0.0854378 711.605L10.0664 712.222ZM75.1885 487.363L83.7249 492.572C125.069 424.813 179.86 388.75 235.186 388.75V378.75V368.75C170.49 368.75 110.175 410.826 66.6521 482.155L75.1885 487.363ZM46.2963 749.58V739.58C30.9984 739.58 19.1555 727.28 20.0474 712.838L10.0664 712.222L0.0854378 711.605C-1.56793 738.375 20.3052 759.58 46.2963 759.58V749.58ZM460.304 712.222L450.323 712.838C451.215 727.28 439.372 739.58 424.074 739.58V749.58V759.58C450.065 759.58 471.938 738.375 470.285 711.605L460.304 712.222Z" fill="white" mask="url(#path-2-outside-1_2091_246)"/>
<circle cx="235.185" cy="194.576" r="139.56" fill="#FFC786" stroke="white" stroke-width="10"/>
<path d="M182.998 187C125.998 164 128.998 177.8 89.9412 177.8C80.9977 145.5 126.401 25.4658 228.804 22.5335C339.995 19.3495 392.998 134.5 380.443 177.8C316.498 177.8 297.998 154 282.998 104C260.498 155 235.998 184 182.998 187Z" fill="#FCB052"/>
<path d="M94.8682 179.886C117.998 184.5 115.998 164.127 153.998 179.886C222.998 208.5 267.498 148 282.998 106C293.998 155 317.998 176 376.341 179.886" stroke="white" stroke-width="10" stroke-linecap="round"/>
</svg>
