<svg width="625" height="782" viewBox="0 0 625 782" fill="none" xmlns="http://www.w3.org/2000/svg">
<path d="M516.582 0C576.46 0.000207613 625 48.5405 625 108.418V672.832C625 732.71 576.46 781.25 516.582 781.25H108.418C48.5405 781.25 0.000216448 732.71 0 672.832V108.418C0.000197571 48.5405 48.5405 0.000212647 108.418 0H119.791V187.613L184.896 270.833L249.999 187.613V0H516.582ZM145.834 558.984C135.267 558.984 126.701 567.551 126.701 578.117C126.701 588.684 135.267 597.25 145.834 597.25H473.959L474.453 597.243C484.791 596.981 493.092 588.518 493.092 578.117C493.092 567.716 484.791 559.253 474.453 558.991L473.959 558.984H145.834ZM145.834 449.617C135.267 449.617 126.701 458.183 126.701 468.75C126.701 479.317 135.267 487.883 145.834 487.883H473.959L474.453 487.876C484.791 487.614 493.092 479.151 493.092 468.75C493.092 458.349 484.791 449.886 474.453 449.624L473.959 449.617H145.834ZM145.834 340.25C135.267 340.25 126.701 348.816 126.701 359.383C126.701 369.949 135.267 378.516 145.834 378.516H473.959L474.453 378.509C484.791 378.246 493.092 369.784 493.092 359.383C493.092 348.981 484.791 340.519 474.453 340.257L473.959 340.25H145.834Z" fill="#3DA0EE"/>
</svg>
