<svg width="754" height="777" viewBox="0 0 754 777" fill="none" xmlns="http://www.w3.org/2000/svg">
<mask id="path-1-inside-1_2073_1057" fill="white">
<path d="M378.873 0C586.05 0 754.001 167.951 754.001 375.128C754.001 582.305 586.05 750.255 378.873 750.255C322.891 750.255 269.774 737.99 222.06 716.004C213.702 712.153 204.137 711.625 195.574 714.995L43.9601 774.67C20.9205 783.739 -3.29609 764.465 0.370288 739.978L31.8195 529.934C32.6955 524.084 31.9095 518.117 29.7404 512.614C12.9622 470.041 3.74599 423.661 3.74593 375.128C3.74593 167.951 171.696 7.58064e-05 378.873 0Z"/>
</mask>
<path d="M378.873 0C586.05 0 754.001 167.951 754.001 375.128C754.001 582.305 586.05 750.255 378.873 750.255C322.891 750.255 269.774 737.99 222.06 716.004C213.702 712.153 204.137 711.625 195.574 714.995L43.9601 774.67C20.9205 783.739 -3.29609 764.465 0.370288 739.978L31.8195 529.934C32.6955 524.084 31.9095 518.117 29.7404 512.614C12.9622 470.041 3.74599 423.661 3.74593 375.128C3.74593 167.951 171.696 7.58064e-05 378.873 0Z" fill="#C1C1C1"/>
<path d="M378.873 0V-96.4926H378.873L378.873 0ZM754.001 375.128L850.493 375.128V375.128H754.001ZM378.873 750.255L378.873 846.747H378.873V750.255ZM3.74593 375.128H-92.7467V375.128L3.74593 375.128ZM31.8195 529.934L127.248 544.223L31.8195 529.934ZM29.7404 512.614L-60.0319 547.994L29.7404 512.614ZM43.9601 774.67L79.3006 864.458L43.9601 774.67ZM222.06 716.004L181.677 803.64L222.06 716.004ZM195.574 714.995L230.915 804.783L195.574 714.995ZM378.873 0V96.4926C532.759 96.4926 657.508 221.242 657.508 375.128H754.001H850.493C850.493 114.659 639.341 -96.4926 378.873 -96.4926V0ZM754.001 375.128L657.508 375.128C657.508 529.013 532.759 653.762 378.873 653.762V750.255V846.747C639.341 846.747 850.493 635.597 850.493 375.128L754.001 375.128ZM378.873 750.255L378.873 653.762C337.116 653.762 297.752 644.639 262.442 628.368L222.06 716.004L181.677 803.64C241.795 831.342 308.666 846.747 378.873 846.747L378.873 750.255ZM195.574 714.995L160.234 625.207L8.61958 684.882L43.9601 774.67L79.3006 864.458L230.915 804.783L195.574 714.995ZM0.370288 739.978L95.7992 754.267L127.248 544.223L31.8195 529.934L-63.6093 515.646L-95.0586 725.69L0.370288 739.978ZM29.7404 512.614L119.513 477.233C107.103 445.744 100.239 411.354 100.239 375.128L3.74593 375.128L-92.7467 375.128C-92.7466 435.967 -81.1782 494.337 -60.0319 547.994L29.7404 512.614ZM3.74593 375.128H100.239C100.239 221.242 224.987 96.4927 378.873 96.4926L378.873 0L378.873 -96.4926C118.404 -96.4925 -92.7467 114.66 -92.7467 375.128H3.74593ZM31.8195 529.934L127.248 544.223C130.81 520.438 127.45 497.372 119.513 477.233L29.7404 512.614L-60.0319 547.994C-63.6306 538.862 -65.4185 527.729 -63.6093 515.646L31.8195 529.934ZM43.9601 774.67L8.61958 684.882C54.6987 666.746 103.132 705.292 95.7992 754.267L0.370288 739.978L-95.0586 725.69C-109.724 823.638 -12.8577 900.732 79.3006 864.458L43.9601 774.67ZM222.06 716.004L262.442 628.368C232.026 614.352 195.093 611.486 160.234 625.207L195.574 714.995L230.915 804.783C213.182 811.763 195.378 809.953 181.677 803.64L222.06 716.004Z" fill="#C1C1C1" mask="url(#path-1-inside-1_2073_1057)"/>
<path d="M333.537 449.376C333.537 435.888 334.813 424.223 337.365 414.381C340.281 404.539 345.202 395.243 352.128 386.495C359.418 377.381 368.896 368.086 380.561 358.608C394.049 347.672 404.438 338.559 411.728 331.269C419.383 323.614 424.669 316.323 427.585 309.397C430.866 302.106 432.506 293.358 432.506 283.151C432.506 267.476 427.221 255.447 416.649 247.063C406.443 238.679 391.497 234.487 371.812 234.487C354.68 234.487 339.005 236.856 324.788 241.595C310.572 245.969 296.72 251.437 283.232 257.999L262.454 214.255C278.129 205.871 295.262 198.945 313.852 193.477C332.443 188.009 353.039 185.275 375.64 185.275C411.364 185.275 438.885 194.024 458.205 211.521C477.89 229.019 487.732 252.348 487.732 281.511C487.732 297.185 485.18 310.855 480.077 322.52C474.974 333.82 467.501 344.209 457.659 353.687C448.181 363.165 436.881 373.372 423.758 384.307C412.093 393.785 403.162 401.987 396.965 408.913C390.768 415.839 386.576 422.765 384.389 429.691C382.201 436.253 381.108 444.454 381.108 454.297V465.233H333.537V449.376ZM322.054 548.892C322.054 534.675 325.517 524.651 332.443 518.818C339.734 512.986 348.847 510.069 359.783 510.069C369.99 510.069 378.738 512.986 386.029 518.818C393.32 524.651 396.965 534.675 396.965 548.892C396.965 563.108 393.32 573.315 386.029 579.512C378.738 585.709 369.99 588.807 359.783 588.807C348.847 588.807 339.734 585.709 332.443 579.512C325.517 573.315 322.054 563.108 322.054 548.892Z" fill="white"/>
</svg>
