<svg width="781" height="781" viewBox="0 0 781 781" fill="none" xmlns="http://www.w3.org/2000/svg">
<path d="M498.452 0C531.799 9.21082 563.419 22.5796 592.721 39.5137C583.394 55.5465 578.05 74.1834 578.05 94.0684C578.05 154.073 626.694 202.717 686.699 202.717C706.584 202.717 725.22 197.373 741.253 188.046C758.33 217.596 771.781 249.503 780.999 283.161C729.384 291.589 689.992 336.387 689.992 390.385C689.992 444.383 729.384 489.178 780.999 497.606C771.782 531.263 758.331 563.168 741.255 592.717C725.222 583.389 706.585 578.045 686.699 578.045C626.694 578.045 578.05 626.689 578.05 686.694C578.05 706.581 583.394 725.218 592.723 741.252C563.173 758.33 531.265 771.781 497.606 780.999C489.18 729.383 444.383 689.989 390.384 689.989C336.385 689.989 291.587 729.382 283.16 780.998C249.502 771.78 217.594 758.329 188.044 741.251C197.372 725.218 202.718 706.581 202.718 686.694C202.718 626.689 154.074 578.045 94.0684 578.045C74.1826 578.045 55.545 583.388 39.5117 592.716C22.5791 563.416 9.21036 531.797 0 498.453C54.7007 492.806 97.3604 446.578 97.3604 390.385C97.3603 334.191 54.7008 287.962 0 282.315C9.21088 248.969 22.5794 217.348 39.5137 188.046C55.5466 197.373 74.1832 202.717 94.0684 202.717C154.073 202.717 202.718 154.073 202.718 94.0684C202.718 74.1832 197.373 55.5466 188.046 39.5137C217.348 22.5795 248.968 9.21092 282.314 0C287.962 54.7001 334.191 97.3594 390.384 97.3594C446.577 97.3594 492.805 54.7 498.452 0ZM390.384 248.811C312.195 248.811 248.811 312.195 248.811 390.384C248.811 468.572 312.195 531.957 390.384 531.957C468.572 531.957 531.957 468.572 531.957 390.384C531.957 312.195 468.572 248.811 390.384 248.811Z" fill="#C1C1C1"/>
</svg>
